<?xml version="1.0" encoding="utf-8"?>
<!-- Generator: Adobe Illustrator 20.1.0, SVG Export Plug-In . SVG Version: 6.00 Build 0)  -->
<svg version="1.1" xmlns="http://www.w3.org/2000/svg" xmlns:xlink="http://www.w3.org/1999/xlink" x="0px" y="0px"
	 viewBox="0 0 1000 1000" style="enable-background:new 0 0 1000 1000;" xml:space="preserve">
<style type="text/css">
	.st0{display:none;}
	.st1{display:inline;fill:#757575;}
	.st2{fill:#003366;}
	.st3{fill:#FFFFFF;}
	.st4{fill:#F5EFDB;}
	.st5{fill:#DCD8C6;}
	.st6{fill:#F2F2F2;}
	.st7{fill:#B0B0B0;}
	.st8{fill:#2B808E;}
	.st9{fill:#1A1A1A;}
	.st10{fill:#5D7A7F;}
	.st11{fill:#DAE7E8;}
	.st12{fill:#688689;}
	.st13{fill:#153E49;}
	.st14{opacity:0.28;}
	.st15{font-family:'Montserrat-Medium';}
	.st16{font-size:33.3732px;}
	.st17{fill:#EDEDED;}
	.st18{fill:#2E2E2E;}
	.st19{font-family:'Montserrat-Bold';}
	.st20{font-size:14.8144px;}
	.st21{fill:none;stroke:#2E2E2E;stroke-width:1.2708;stroke-linecap:round;stroke-linejoin:round;stroke-miterlimit:10;}
	.st22{fill:#EECA2F;}
	.st23{opacity:0.4;}
	.st24{fill-rule:evenodd;clip-rule:evenodd;fill:#003366;}
	.st25{fill-rule:evenodd;clip-rule:evenodd;fill:#C3CAD7;}
	.st26{fill-rule:evenodd;clip-rule:evenodd;fill:#FFFFFF;}
	.st27{fill-rule:evenodd;clip-rule:evenodd;fill:#EECA2F;}
	.st28{opacity:0.15;fill-rule:evenodd;clip-rule:evenodd;fill:#1A1A1A;}
	.st29{fill-rule:evenodd;clip-rule:evenodd;fill:#A7B0C0;}
	.st30{fill-rule:evenodd;clip-rule:evenodd;fill:#EAEEF3;}
	.st31{fill:#F72129;}
	.st32{clip-path:url(#SVGID_2_);}
	.st33{opacity:0.66;fill:#B7AC9A;}
	.st34{fill:none;stroke:#B0B0B0;stroke-miterlimit:10;}
	.st35{fill:none;stroke:#B9C9BC;stroke-width:1.8352;stroke-miterlimit:10;}
	.st36{fill:#001D4F;}
	.st37{opacity:0.4;fill:#6D645B;}
	.st38{fill:#E67E4B;}
	.st39{fill:#FFA97D;}
	.st40{fill:#EA8F68;}
	.st41{fill:#FFC692;}
	.st42{fill:#DE7540;}
	.st43{opacity:0.4;fill:#869E9A;}
	.st44{fill:#4F455E;}
	.st45{fill:#302C3D;}
	.st46{fill:#546982;}
	.st47{fill:#384559;}
	.st48{font-size:15.9992px;}
</style>
<g id="Layer_2" class="st0">
	<rect class="st1" width="1000" height="1000"/>
</g>
<g id="Layer_1">
	<g id="Layer_1_1_">
	</g>
	<g>
		<path class="st2" d="M499.3,850.2c-0.8,0-1.6-0.1-2.4-0.4c-15.7-5.8-30.5-12.3-43.9-19.4c-3.4-1.8-4.8-6.1-2.9-9.5
			c1.8-3.4,6.1-4.8,9.5-2.9c12.9,6.8,27.1,13.1,42.2,18.6c3.7,1.3,5.5,5.4,4.2,9C504.8,848.5,502.1,850.2,499.3,850.2z M416.6,805.8
			c-1.5,0-3.1-0.5-4.4-1.5c-13.6-10.8-25.1-22.5-34.1-34.9c-2.3-3.1-1.6-7.6,1.5-9.8c3.1-2.3,7.6-1.6,9.8,1.5
			c8.3,11.4,18.9,22.2,31.5,32.2c3.1,2.4,3.6,6.8,1.2,9.9C420.8,804.8,418.7,805.8,416.6,805.8z M363.2,730.2c-3.1,0-5.9-2-6.8-5.2
			c-1.5-5.4-2.7-11-3.5-16.7c-0.6-4.4-1-8.8-1-13c0-7.1,1-14,2.8-20.5c1.1-3.7,5-5.9,8.7-4.8c3.7,1.1,5.9,5,4.8,8.7
			c-1.5,5.2-2.3,10.8-2.3,16.6c0,3.5,0.3,7.2,0.8,10.9c0.7,5,1.8,10.1,3.1,14.9c1,3.7-1.1,7.6-4.9,8.7
			C364.5,730.1,363.8,730.2,363.2,730.2z M388.6,646.6c-2.1,0-4.2-0.9-5.5-2.7c-2.4-3.1-1.9-7.5,1.2-9.9
			c10.8-8.5,24.2-16.2,42.2-24.3c3.5-1.6,7.7,0,9.3,3.5c1.6,3.5,0,7.7-3.5,9.3c-17,7.7-29.4,14.9-39.3,22.6
			C391.7,646.1,390.1,646.6,388.6,646.6z M473,605.3c-2.8,0-5.5-1.7-6.6-4.5c-1.4-3.6,0.4-7.7,4-9.1c13.7-5.3,29.2-11.3,43.2-17.8
			c3.5-1.6,7.7-0.1,9.3,3.5c1.6,3.5,0.1,7.7-3.5,9.3c-14.4,6.6-30.1,12.7-44,18.1C474.7,605.2,473.8,605.3,473,605.3z M557.1,563.5
			c-2.1,0-4.1-0.9-5.5-2.6c-2.4-3-2-7.5,1.1-9.9c12.7-10.3,20.7-21.4,24.4-34.1c1.1-3.7,5-5.9,8.7-4.8c3.7,1.1,5.9,5,4.8,8.7
			c-4.5,15.5-14,29-29,41.1C560.2,563,558.6,563.5,557.1,563.5z M582.4,479.7c-3.1,0-5.9-2-6.8-5.1c-4.2-14.4-11.5-26.2-22.4-36
			c-2.9-2.6-3.1-7.1-0.5-10s7.1-3.1,10-0.5c12.8,11.6,21.5,25.5,26.4,42.5c1.1,3.7-1.1,7.6-4.8,8.7
			C583.7,479.6,583.1,479.7,582.4,479.7z M517.6,416.9c-0.8,0-1.7-0.2-2.5-0.5c-14.1-5.5-29.6-9.6-44.3-13.5c-3.8-1-6-4.8-5-8.6
			c1-3.8,4.8-6,8.6-5c15.1,3.9,31,8.2,45.8,14c3.6,1.4,5.4,5.5,4,9.1C523.1,415.2,520.4,416.9,517.6,416.9z M427.1,390.4
			c-0.7,0-1.5-0.1-2.3-0.4c-19.1-6.5-33-13.7-43.9-22.6c-3-2.5-3.4-6.9-0.9-9.9s6.9-3.4,9.9-0.9c9.5,7.8,22,14.2,39.4,20.1
			c3.7,1.2,5.7,5.2,4.4,8.9C432.8,388.6,430.1,390.4,427.1,390.4z M361.8,329.8c-3.3,0-6.2-2.3-6.9-5.6c-1.4-6.7-2.2-14-2.2-21.8
			c0-1.3,0-2.6,0.1-4c0.2-8,1.1-16,2.7-23.8c0.8-3.8,4.5-6.3,8.3-5.5s6.3,4.5,5.5,8.3c-1.4,7-2.2,14.2-2.4,21.5
			c0,1.2-0.1,2.4-0.1,3.5c0,6.7,0.6,13.1,1.8,18.8c0.8,3.8-1.6,7.5-5.4,8.4C362.8,329.7,362.3,329.8,361.8,329.8z M379.1,239.4
			c-1.2,0-2.4-0.3-3.5-1c-3.4-2-4.5-6.3-2.6-9.6c7.8-13.4,17.9-26.3,30-38.4c2.8-2.7,7.2-2.7,10,0c2.8,2.8,2.7,7.2,0,10
			c-11.3,11.3-20.6,23.2-27.8,35.5C383.9,238.1,381.5,239.4,379.1,239.4z M444.4,172.6c-2.2,0-4.5-1.1-5.8-3.1
			c-2.2-3.2-1.4-7.6,1.8-9.8c12.6-8.6,26.6-16.8,41.4-24.3c3.5-1.7,7.7-0.3,9.5,3.1c1.7,3.5,0.3,7.7-3.1,9.5
			c-14.3,7.2-27.7,15-39.8,23.3C447.1,172.2,445.7,172.6,444.4,172.6z"/>
		<path class="st2" d="M569.3,869.4c-0.4,0-0.7,0-1.1-0.1c-0.4-0.1-9.6-1.5-24.2-5.1c-3.8-0.9-6.1-4.7-5.2-8.5
			c0.9-3.8,4.7-6.1,8.5-5.2c14,3.4,23,4.9,23,4.9c3.8,0.6,6.5,4.2,5.9,8.1C575.7,866.9,572.7,869.4,569.3,869.4z"/>
	</g>
	<g>
		<polygon class="st3" points="450,135.1 411.4,115.6 592.6,113.3 		"/>
		<polygon class="st4" points="450,135.1 447.4,171.9 463,150 592.6,113.3 		"/>
		<polygon class="st5" points="447.4,171.9 471.2,162.9 463,150 		"/>
		<polygon class="st3" points="463,150 476.2,200.8 592.6,113.2 		"/>
	</g>
	<g>
		<path class="st6" d="M639.5,806.6h126.9l0.1-0.1c5.5-6.6,5.5-16.2,0-22.8l-0.1-0.1h-8.9h-118l0.6,0.7c5.9,6.3,5.7,16.2-0.5,22.3
			L639.5,806.6z"/>
		<path class="st3" d="M741.2,955.3H625.3V797.2c0-7.4,6-13.4,13.4-13.4H752c0,0,11.8-0.7,11.5,0c-8.3,0.2-7.8,23.1-7.8,23.1v133.9
			C755.7,948.8,749.2,955.3,741.2,955.3z"/>
		<path class="st6" d="M741,955.3c-5.2,0-126.9,0-126.9,0l-0.1-0.1c-5.5-6.6-5.5-16.2,0-22.8l0.1-0.1H741l-0.6,0.7
			C734.5,939.3,733.5,950.1,741,955.3C741,955.3,746.2,955.3,741,955.3z"/>
	</g>
	<rect x="708" y="922.1" class="st2" width="35.2" height="2.2"/>
	<rect x="642.5" y="828.5" class="st7" width="100.8" height="2.7"/>
	<rect x="642.5" y="841.7" class="st7" width="100.8" height="2.7"/>
	<rect x="642.5" y="854.9" class="st7" width="100.8" height="2.7"/>
	<rect x="642.5" y="868.2" class="st7" width="100.8" height="2.7"/>
	<rect x="642.5" y="881.4" class="st7" width="100.8" height="2.7"/>
	<rect x="642.5" y="907.9" class="st7" width="100.8" height="2.7"/>
	<rect x="642.5" y="894.6" class="st7" width="100.8" height="2.7"/>
	<g>
		<polygon class="st8" points="753.7,906.8 747.9,903.3 751.9,894.1 789.8,830.8 798.3,835.9 760.4,899.1 		"/>
		<path class="st8" d="M794.6,843.5l-10-6c-0.2-0.1-0.2-0.4-0.1-0.5l18.2-30.3c0.1-0.2,0.4-0.2,0.5-0.1l10,6
			c0.2,0.1,0.2,0.4,0.1,0.5l-18.2,30.3C795,843.6,794.8,843.6,794.6,843.5z"/>
		<path class="st9" d="M812.4,816.5l-0.3-0.2l-11.9-7.1c-0.1-0.1-0.3,0-0.4,0.1l-0.8,1.3c-0.1,0.1,0,0.3,0.1,0.4l11.7,7
			c0.1,0.1,0.2,0.3,0.1,0.4l-10.1,16.8c-0.1,0.1,0,0.3,0.1,0.4l1.2,0.7c0.1,0.1,0.3,0,0.4-0.1l11.1-18.6c0.1-0.1,0-0.3-0.1-0.4
			L812.4,816.5z"/>
		<polygon class="st10" points="748.1,913.3 744.5,911.1 751.9,894.1 760.3,899.2 		"/>
		<polygon class="st11" points="748.1,913.3 744.5,911.1 742.6,912.3 740.9,919.8 741.9,920.4 747.8,915.4 		"/>
		<path class="st12" d="M761,899.2c0.3,0.2,0.3,0.5,0.2,0.7l0,0c-0.2,0.3-0.5,0.3-0.7,0.2l-9.7-5.8c-0.3-0.2-0.3-0.5-0.2-0.7l0,0
			c0.2-0.3,0.5-0.3,0.7-0.2"/>
		<path class="st12" d="M750,895.6c-0.3-0.2-0.3-0.5-0.2-0.7l0,0c0.2-0.3,0.5-0.3,0.7-0.2l9.7,5.8c0.3,0.2,0.3,0.5,0.2,0.7l0,0
			c-0.2,0.3-0.5,0.3-0.7,0.2"/>
		<g>
			
				<ellipse transform="matrix(0.5142 -0.8577 0.8577 0.5142 -423.696 1083.0972)" class="st13" cx="744.2" cy="915.5" rx="0.8" ry="0.8"/>
			
				<rect x="740.3" y="917.8" transform="matrix(0.5142 -0.8577 0.8577 0.5142 -426.4995 1083.0184)" class="st13" width="4.9" height="0.4"/>
		</g>
		<polygon class="st14" points="785.5,838.1 793.9,843.1 789.3,850.9 		"/>
	</g>
	<text transform="matrix(1 0 0 1 667.1797 820.4982)" class="st15 st16">CV</text>
	<g>
		<path class="st2" d="M307.1,790.4c0,5.5-4.1,9.7-9.6,9.7H172.2c-5.5,0-10-4.2-10-9.7V612.2c0-5.5,4.5-9.6,10-9.6h125.3
			c5.5,0,9.6,4.1,9.6,9.6V790.4z"/>
		
			<rect x="170" y="609.9" transform="matrix(0.9998 -1.848729e-02 1.848729e-02 0.9998 -12.9173 4.4529)" class="st17" width="128.8" height="182"/>
		
			<rect x="145.1" y="635.6" transform="matrix(5.864289e-03 -1 1 5.864289e-03 -465.2929 932.015)" class="st3" width="182" height="128.8"/>
		<g>
			<g>
				<g>
					<path class="st7" d="M186.3,675.6c-3.8,0-6.9-3.1-6.9-6.9s3.1-6.9,6.9-6.9c3.8,0,6.9,3.1,6.9,6.9S190.1,675.6,186.3,675.6z
						 M186.3,662.7c-3.3,0-6,2.7-6,6s2.7,6,6,6c3.3,0,6-2.7,6-6S189.6,662.7,186.3,662.7z"/>
				</g>
				<g>
					<path class="st2" d="M187.2,671.7c-0.3,0-0.6-0.1-0.9-0.3l-6.9-6.4c-0.5-0.5-0.5-1.3-0.1-1.8c0.5-0.5,1.3-0.5,1.8-0.1l5.6,5.2
						l6.1-13.4c0.3-0.6,1.1-0.9,1.7-0.6c0.6,0.3,0.9,1.1,0.6,1.7l-6.9,15c-0.2,0.4-0.5,0.6-0.9,0.7
						C187.3,671.7,187.2,671.7,187.2,671.7z"/>
				</g>
			</g>
			<g>
				<g>
					<rect x="198.4" y="662.9" class="st7" width="83.2" height="2.5"/>
				</g>
				<g>
					<rect x="198.4" y="667.4" class="st7" width="65.4" height="1.9"/>
				</g>
				<g>
					<rect x="198.4" y="671.8" class="st7" width="42.6" height="1.3"/>
				</g>
			</g>
		</g>
		<g>
			<g>
				<g>
					<path class="st7" d="M186.9,700.5c-3.8,0-6.9-3.1-6.9-6.9c0-3.8,3.1-6.9,6.9-6.9c3.8,0,6.9,3.1,6.9,6.9
						C193.7,697.4,190.7,700.5,186.9,700.5z M186.9,687.6c-3.3,0-6,2.7-6,6c0,3.3,2.7,6,6,6c3.3,0,6-2.7,6-6
						C192.9,690.3,190.2,687.6,186.9,687.6z"/>
				</g>
				<g>
					<path class="st2" d="M187.7,696.6c-0.3,0-0.6-0.1-0.9-0.3l-6.9-6.4c-0.5-0.5-0.5-1.3-0.1-1.8c0.5-0.5,1.3-0.5,1.8-0.1l5.6,5.2
						l6.1-13.4c0.3-0.6,1.1-0.9,1.7-0.6c0.6,0.3,0.9,1.1,0.6,1.7l-6.9,15c-0.2,0.4-0.5,0.6-0.9,0.7
						C187.9,696.6,187.8,696.6,187.7,696.6z"/>
				</g>
			</g>
			<g>
				<g>
					<rect x="199" y="688.3" class="st7" width="57.8" height="1.3"/>
				</g>
				<g>
					<rect x="199" y="692.1" class="st7" width="82" height="1.3"/>
				</g>
				<g>
					<rect x="199" y="696.6" class="st7" width="68.6" height="1.9"/>
				</g>
			</g>
		</g>
		<g>
			<g>
				<g>
					<path class="st7" d="M186.3,726.2c-3.8,0-6.9-3.1-6.9-6.9c0-3.8,3.1-6.9,6.9-6.9c3.8,0,6.9,3.1,6.9,6.9
						C193.2,723.1,190.1,726.2,186.3,726.2z M186.3,713.3c-3.3,0-6,2.7-6,6c0,3.3,2.7,6,6,6c3.3,0,6-2.7,6-6
						C192.3,716,189.6,713.3,186.3,713.3z"/>
				</g>
				<g>
					<path class="st2" d="M187.2,722.3c-0.3,0-0.6-0.1-0.9-0.3l-6.9-6.4c-0.5-0.5-0.5-1.3-0.1-1.8c0.5-0.5,1.3-0.5,1.8-0.1l5.6,5.2
						l6.1-13.4c0.3-0.6,1.1-0.9,1.7-0.6c0.6,0.3,0.9,1.1,0.6,1.7l-6.9,15c-0.2,0.4-0.5,0.6-0.9,0.7
						C187.3,722.3,187.2,722.3,187.2,722.3z"/>
				</g>
			</g>
			<g>
				<g>
					<rect x="198.4" y="713.7" class="st7" width="57.8" height="1.9"/>
				</g>
				<g>
					<rect x="198.4" y="718.2" class="st7" width="80.1" height="1.9"/>
				</g>
				<g>
					<rect x="198.4" y="722.6" class="st7" width="68.6" height="1.3"/>
				</g>
			</g>
		</g>
		<g>
			<g>
				<g>
					<path class="st7" d="M186.3,750.3c-3.8,0-6.9-3.1-6.9-6.9s3.1-6.9,6.9-6.9c3.8,0,6.9,3.1,6.9,6.9S190.1,750.3,186.3,750.3z
						 M186.3,737.4c-3.3,0-6,2.7-6,6c0,3.3,2.7,6,6,6c3.3,0,6-2.7,6-6C192.3,740.1,189.6,737.4,186.3,737.4z"/>
				</g>
				<g>
					<path class="st2" d="M187.2,746.4c-0.3,0-0.6-0.1-0.9-0.3l-6.9-6.4c-0.5-0.5-0.5-1.3-0.1-1.8c0.5-0.5,1.3-0.5,1.8-0.1l5.6,5.2
						l6.1-13.4c0.3-0.6,1.1-0.9,1.7-0.6c0.6,0.3,0.9,1.1,0.6,1.7l-6.9,15c-0.2,0.4-0.5,0.6-0.9,0.7
						C187.3,746.4,187.2,746.4,187.2,746.4z"/>
				</g>
			</g>
			<g>
				<g>
					<rect x="198.4" y="737.9" class="st7" width="57.8" height="1.9"/>
				</g>
				<g>
					<rect x="198.4" y="742.3" class="st7" width="80.1" height="1.3"/>
				</g>
				<g>
					<rect x="198.4" y="745.5" class="st7" width="68.6" height="3.2"/>
				</g>
			</g>
		</g>
		<g>
			<g>
				<path class="st7" d="M268.3,784.6c-6,0-10.9-4.9-10.9-10.9c0-6,4.9-10.9,10.9-10.9c6,0,10.9,4.9,10.9,10.9
					C279.3,779.7,274.3,784.6,268.3,784.6z M268.3,763.6c-5.6,0-10.1,4.5-10.1,10.1c0,5.6,4.5,10.1,10.1,10.1
					c5.6,0,10.1-4.5,10.1-10.1C278.4,768.1,273.9,763.6,268.3,763.6z"/>
			</g>
			<g>
				<path class="st2" d="M269.7,778.2c-0.4,0-0.9-0.2-1.2-0.5l-11.2-10.5c-0.7-0.6-0.7-1.7-0.1-2.4c0.6-0.7,1.7-0.7,2.4-0.1l9.5,8.9
					l10.2-22.3c0.4-0.9,1.4-1.2,2.3-0.8c0.9,0.4,1.2,1.4,0.8,2.3l-11.2,24.5c-0.2,0.5-0.7,0.9-1.2,1
					C269.9,778.2,269.8,778.2,269.7,778.2z"/>
			</g>
		</g>
		<g>
			<text transform="matrix(1 0 0 1 177.3363 638.5264)" class="st18 st19 st20">REGISTRATION</text>
			<line class="st21" x1="183.7" y1="642.7" x2="286.6" y2="642.7"/>
		</g>
		<path class="st22" d="M262.7,598.1h-13.7c0,0,0.1-0.9,0.1-1.2c0-6.9-6.7-12.6-15-12.6c-8.3,0-15,5.8-15,12.7c0,0.3,0,1.1,0.1,1.1
			h-11.8c-6,0-10.9,6.4-10.9,15.2h77C273.6,604.5,268.7,598.1,262.7,598.1z M233.7,602.4c-2.5,0-4.5-2.2-4.5-4.8s2-4.8,4.5-4.8
			c2.5,0,4.5,2.2,4.5,4.8S236.2,602.4,233.7,602.4z"/>
		<g class="st23">
			<path class="st22" d="M273.3,613.4c0-8.3-4.2-14.5-9.6-15.4c2,2.8,3.3,6.5,3.3,11h-70.3c-0.3,1.9-0.4,3.2-0.4,4.4H273.3z"/>
		</g>
		<g>
			<polygon class="st8" points="241.9,796.7 239,802.1 230.6,798.9 172.2,766.9 176.5,759.1 234.8,791.1 			"/>
			<path class="st8" d="M183.5,762.1l-5.1,9.2c-0.1,0.2-0.3,0.2-0.5,0.1L150,756.2c-0.2-0.1-0.2-0.3-0.1-0.5l5.1-9.2
				c0.1-0.2,0.3-0.2,0.5-0.1l27.9,15.3C183.5,761.7,183.6,762,183.5,762.1z"/>
			<path class="st9" d="M158.6,747l-0.2,0.3l-6,11c-0.1,0.1,0,0.3,0.1,0.4l1.2,0.6c0.1,0.1,0.3,0,0.4-0.1l5.9-10.7
				c0.1-0.1,0.2-0.2,0.4-0.1l15.5,8.5c0.1,0.1,0.3,0,0.4-0.1l0.6-1.1c0.1-0.1,0-0.3-0.1-0.4l-17.1-9.4c-0.1-0.1-0.3,0-0.4,0.1
				L158.6,747z"/>
			<polygon class="st10" points="248,801.6 246.1,804.9 230.6,798.9 234.8,791.1 			"/>
			<polygon class="st11" points="248,801.6 246.1,804.9 247.3,806.6 254.1,807.8 254.6,806.9 249.9,801.8 			"/>
			<path class="st12" d="M235.7,790.9l-4.9,8.9c-0.1,0.2-0.4,0.3-0.7,0.2l0,0c-0.2-0.1-0.3-0.4-0.2-0.7l4.9-8.9
				c0.1-0.2,0.4-0.3,0.7-0.2l0,0C235.7,790.4,235.8,790.7,235.7,790.9z"/>
			<path class="st12" d="M236.9,791.6l-4.9,8.9c-0.1,0.2-0.4,0.3-0.7,0.2l0,0c-0.2-0.1-0.3-0.4-0.2-0.7l4.9-8.9
				c0.1-0.2,0.4-0.3,0.7-0.2l0,0C236.9,791,237,791.3,236.9,791.6z"/>
			<g>
				
					<ellipse transform="matrix(0.4809 -0.8768 0.8768 0.4809 -575.989 637.2318)" class="st13" cx="250.2" cy="805" rx="0.7" ry="0.7"/>
				
					<rect x="252.2" y="804.1" transform="matrix(0.4809 -0.8768 0.8768 0.4809 -575.9016 639.8356)" class="st13" width="0.3" height="4.4"/>
			</g>
			<polygon class="st14" points="178.9,770.5 183.2,762.7 190.4,766.7 			"/>
		</g>
	</g>
	<g>
		<polygon class="st24" points="791.7,425.3 645.2,411.2 633.3,414.4 628.6,608.2 797.7,602.2 		"/>
		<polygon class="st25" points="645.2,411.2 633.5,414.3 640.8,597.5 652.5,594.4 		"/>
		<polygon class="st26" points="652.5,594.4 813.1,590 792.5,424.6 645.2,411.2 		"/>
		<g>
			<path class="st27" d="M663,429.1c19.1,0.2,38.3,0.4,57.4,0.7c19.1,0.2,38.3,0.4,57.4,0.6c0.9,8.6,1.8,17.1,2.7,25.6
				c-19.4,0-38.7-0.1-58.1-0.1c-19.3,0-38.7-0.1-58-0.1C663.9,446.8,663.4,438,663,429.1z"/>
			<path class="st24" d="M665.5,477c5.1,0,10.1,0,15.2-0.1c-0.3-5.5-0.6-11-1-16.4c-5,0-10.1,0-15.1,0
				C664.9,466,665.2,471.5,665.5,477z"/>
			<path class="st24" d="M682.4,476.9c5.1,0,10.2-0.1,15.2-0.1c-0.3-5.4-0.7-10.9-1.1-16.4c-5.1,0-10.1,0-15.2,0
				C681.8,465.9,682.1,471.4,682.4,476.9z"/>
			<path class="st24" d="M699.4,476.8c5.1,0,10.1,0,15.2-0.1c-0.4-5.4-0.8-10.8-1.2-16.3c-5,0-10.1,0-15.1,0
				C698.7,465.9,699.1,471.4,699.4,476.8z"/>
			<path class="st24" d="M716.4,476.7c5.1,0,10.1-0.1,15.2-0.1c-0.4-5.4-0.9-10.8-1.3-16.2c-5.1,0-10.1,0-15.1,0
				C715.6,465.9,716,471.3,716.4,476.7z"/>
			<path class="st24" d="M733.4,476.7c5.1,0,10.1,0,15.2-0.1c-0.5-5.4-0.9-10.7-1.4-16.1c-5,0-10.1,0-15.1,0
				C732.5,465.9,732.9,471.3,733.4,476.7z"/>
			<path class="st24" d="M750.4,476.6c5.1,0,10.2,0,15.2-0.1c-0.5-5.3-1-10.7-1.5-16c-5.1,0-10.1,0-15.2,0
				C749.4,465.9,749.9,471.2,750.4,476.6z"/>
			<path class="st24" d="M767.3,476.5c5.1,0,10.2-0.1,15.3-0.1c-0.5-5.3-1.1-10.6-1.6-15.9c-5.1,0-10.1,0-15.2,0
				C766.3,465.8,766.8,471.2,767.3,476.5z"/>
			<path class="st25" d="M735,496.3c5.1-0.1,10.2-0.1,15.4-0.2c-0.5-5.3-1-10.7-1.4-16.1c-5.1,0-10.2,0.1-15.3,0.1
				C734.1,485.5,734.5,490.9,735,496.3z"/>
			<path class="st25" d="M752.1,496.1c5.1-0.1,10.3-0.1,15.4-0.2c-0.5-5.3-1-10.6-1.5-16c-5.1,0-10.2,0.1-15.3,0.1
				C751.1,485.4,751.6,490.7,752.1,496.1z"/>
			<path class="st25" d="M769.2,495.9c5.1-0.1,10.3-0.1,15.4-0.2c-0.6-5.3-1.1-10.6-1.7-15.9c-5.1,0-10.2,0.1-15.3,0.1
				C768.2,485.3,768.7,490.6,769.2,495.9z"/>
			<path class="st25" d="M667.6,517.1c5.1-0.1,10.3-0.2,15.5-0.3c-0.3-5.5-0.6-11-1-16.5c-5.1,0.1-10.3,0.1-15.4,0.2
				C667,506.1,667.3,511.6,667.6,517.1z"/>
			<path class="st25" d="M684.8,516.8c5.2-0.1,10.3-0.2,15.5-0.3c-0.4-5.4-0.7-10.9-1.1-16.4c-5.1,0.1-10.3,0.1-15.4,0.2
				C684.2,505.9,684.5,511.4,684.8,516.8z"/>
			<path class="st25" d="M702.1,516.5c5.1-0.1,10.3-0.2,15.5-0.3c-0.4-5.4-0.8-10.8-1.2-16.3c-5.1,0.1-10.3,0.1-15.4,0.2
				C701.3,505.6,701.7,511.1,702.1,516.5z"/>
			<path class="st25" d="M719.3,516.2c5.2-0.1,10.3-0.2,15.5-0.3c-0.4-5.4-0.9-10.8-1.3-16.2c-5.1,0.1-10.3,0.1-15.4,0.2
				C718.5,505.4,718.9,510.8,719.3,516.2z"/>
			<path class="st25" d="M736.6,515.9c5.1-0.1,10.3-0.2,15.5-0.3c-0.5-5.4-0.9-10.7-1.4-16.1c-5.1,0.1-10.3,0.1-15.4,0.2
				C735.7,505.1,736.2,510.5,736.6,515.9z"/>
			<path class="st25" d="M753.8,515.6c5.2-0.1,10.3-0.2,15.5-0.3c-0.5-5.3-1-10.6-1.5-16c-5.1,0.1-10.3,0.1-15.4,0.2
				C752.9,504.9,753.4,510.2,753.8,515.6z"/>
			<path class="st25" d="M771.1,515.3c5.2-0.1,10.3-0.2,15.5-0.3c-0.5-5.3-1.1-10.6-1.6-15.9c-5.1,0.1-10.3,0.1-15.4,0.2
				C770.1,504.6,770.6,510,771.1,515.3z"/>
			<path class="st25" d="M668.6,537.2c5.2-0.1,10.4-0.2,15.6-0.4c-0.3-5.5-0.6-11-1-16.5c-5.2,0.1-10.3,0.2-15.5,0.3
				C668,526.2,668.3,531.7,668.6,537.2z"/>
			<path class="st25" d="M686,536.8c5.2-0.1,10.4-0.3,15.6-0.4c-0.3-5.5-0.7-10.9-1.1-16.4c-5.2,0.1-10.3,0.2-15.5,0.3
				C685.3,525.8,685.7,531.3,686,536.8z"/>
			<path class="st25" d="M703.4,536.4c5.2-0.1,10.4-0.3,15.6-0.4c-0.4-5.4-0.8-10.9-1.2-16.3c-5.2,0.1-10.3,0.2-15.5,0.3
				C702.7,525.5,703,530.9,703.4,536.4z"/>
			<path class="st25" d="M720.8,536c5.2-0.1,10.4-0.3,15.6-0.4c-0.4-5.4-0.9-10.8-1.3-16.2c-5.2,0.1-10.3,0.2-15.5,0.3
				C720,525.1,720.4,530.5,720.8,536z"/>
			<path class="st25" d="M738.2,535.5c5.2-0.1,10.4-0.3,15.6-0.4c-0.5-5.4-0.9-10.7-1.4-16.1c-5.2,0.1-10.4,0.2-15.5,0.3
				C737.3,524.8,737.7,530.2,738.2,535.5z"/>
			<path class="st25" d="M755.6,535.1c5.2-0.1,10.4-0.3,15.6-0.4c-0.5-5.3-1-10.7-1.5-16c-5.2,0.1-10.3,0.2-15.5,0.3
				C754.6,524.4,755.1,529.8,755.6,535.1z"/>
			<path class="st25" d="M773,534.7c5.2-0.1,10.4-0.3,15.6-0.4c-0.6-5.3-1.1-10.6-1.7-15.9c-5.2,0.1-10.4,0.2-15.5,0.3
				C771.9,524,772.5,529.4,773,534.7z"/>
			<path class="st25" d="M669.7,557.3c5.2-0.1,10.5-0.3,15.7-0.5c-0.3-5.5-0.6-11-0.9-16.5c-5.2,0.1-10.4,0.3-15.6,0.4
				C669.1,546.3,669.4,551.8,669.7,557.3z"/>
			<path class="st24" d="M687.2,556.8c5.2-0.2,10.5-0.3,15.7-0.5c-0.4-5.5-0.7-10.9-1.1-16.4c-5.2,0.1-10.4,0.3-15.6,0.4
				C686.5,545.8,686.9,551.3,687.2,556.8z"/>
			<path class="st24" d="M704.7,556.2c5.2-0.2,10.5-0.3,15.7-0.5c-0.4-5.4-0.8-10.8-1.2-16.3c-5.2,0.1-10.4,0.3-15.6,0.4
				C704,545.3,704.4,550.8,704.7,556.2z"/>
			<path class="st25" d="M722.3,555.7c5.2-0.2,10.5-0.3,15.7-0.5c-0.4-5.4-0.9-10.8-1.3-16.2c-5.2,0.1-10.4,0.3-15.6,0.4
				C721.5,544.8,721.9,550.3,722.3,555.7z"/>
			<path class="st25" d="M739.8,555.2c5.2-0.2,10.5-0.3,15.7-0.5c-0.5-5.4-1-10.7-1.4-16.1c-5.2,0.1-10.4,0.3-15.6,0.4
				C738.9,544.4,739.4,549.8,739.8,555.2z"/>
			<path class="st25" d="M757.3,554.6c5.2-0.2,10.5-0.3,15.7-0.5c-0.5-5.3-1-10.7-1.5-16c-5.2,0.1-10.4,0.3-15.6,0.4
				C756.4,543.9,756.8,549.3,757.3,554.6z"/>
			<path class="st25" d="M774.9,554.1c5.2-0.2,10.5-0.3,15.7-0.5c-0.5-5.3-1.1-10.6-1.6-15.9c-5.2,0.1-10.4,0.3-15.6,0.4
				C773.8,543.4,774.3,548.8,774.9,554.1z"/>
			<path class="st25" d="M670.7,577.4c5.3-0.2,10.6-0.4,15.9-0.6c-0.3-5.5-0.6-11-1-16.4c-5.2,0.2-10.5,0.3-15.7,0.5
				C670.1,566.4,670.4,571.9,670.7,577.4z"/>
			<path class="st25" d="M688.4,576.7c5.3-0.2,10.6-0.4,15.9-0.6c-0.4-5.4-0.7-10.9-1.1-16.4c-5.2,0.2-10.5,0.3-15.8,0.5
				C687.7,565.8,688,571.3,688.4,576.7z"/>
			<path class="st25" d="M706,576.1c5.3-0.2,10.6-0.4,15.9-0.6c-0.4-5.4-0.8-10.8-1.2-16.3c-5.3,0.2-10.5,0.3-15.8,0.5
				C705.3,565.2,705.7,570.7,706,576.1z"/>
			<path class="st25" d="M723.7,575.4c5.3-0.2,10.6-0.4,15.9-0.6c-0.4-5.4-0.9-10.8-1.3-16.2c-5.3,0.2-10.5,0.3-15.8,0.5
				C722.9,564.6,723.3,570,723.7,575.4z"/>
			<path class="st25" d="M741.4,574.8c5.3-0.2,10.6-0.4,15.9-0.6c-0.5-5.3-0.9-10.7-1.4-16.1c-5.3,0.2-10.5,0.3-15.8,0.5
				C740.5,564,740.9,569.4,741.4,574.8z"/>
			<path class="st25" d="M759.1,574.1c5.3-0.2,10.6-0.4,15.9-0.6c-0.5-5.3-1-10.6-1.5-16c-5.3,0.2-10.5,0.3-15.8,0.5
				C758.1,563.4,758.6,568.8,759.1,574.1z"/>
		</g>
		<polygon class="st25" points="640.8,597.5 803.9,592.9 813.1,590 652.5,594.4 		"/>
		<path class="st28" d="M884.7,412.7l-110.4-80.2c-53.6,29.8-58.3,60.6-78.2,83.5l-50.4-4.9c0,11.3,4.5,18.5,12.4,21.6l142.3,54.9
			l-0.8-6.7C830.5,490.2,807.7,427.2,884.7,412.7z"/>
		<path class="st29" d="M645.2,411.2c0.4,8.8,4.9,17,13.7,19.7c6,1.8,33.8,9.5,43.8,4.7c7.4-3.6,7-10.2,9.9-18.2L645.2,411.2z"/>
		<path class="st30" d="M809.4,484.3l-150.7-53.5c6,1.9,14,1.1,24.1-3.8c30.5-14.9,24.8-67.1,85.6-101.5l116,87.2
			c-12.6,2.6-32.7,13.1-50.3,29.7C825.2,450.9,834.6,478.2,809.4,484.3z"/>
	</g>
	<g>
		<g>
			<path class="st31" d="M724.1,557.3c-7.1,5.7-18,6.8-26.8,5.9c-9.1-0.9-26-7.7-16.1-18.8c6.4-7.3,16.7-11.5,26.2-12.6
				c8.9-1,22.4,0.3,25.5,10.5c1.1,3.7,7,2.1,5.9-1.6c-3.8-12.5-18.4-16.1-30.1-15.1c-12.6,1-28.7,7.2-35,19
				c-6.9,12.8,7.5,21.8,18.3,24c12,2.5,26.7,1,36.5-6.9C731.5,559.1,727.1,554.8,724.1,557.3L724.1,557.3z"/>
		</g>
	</g>
	<g>
		<g>
			<path class="st31" d="M727.2,554.5c0.1-0.1,0.2-0.1,0.7-0.2c0.5-0.1,1-0.2,1.6-0.3c0.9-0.2,1.9-0.3,2.7-0.8
				c-1.1-0.4-2.2-0.9-3.3-1.3c0.1,0.8,0.6,1.5,1,2.1c0.3,0.4,0.8,0.8,0.9,1.3c0.2,1.2,1.7,1.9,2.8,1.6c1.3-0.4,1.7-1.6,1.6-2.8
				c-0.1-0.8-0.6-1.5-1-2.1c-0.3-0.4-0.8-0.8-0.9-1.3c-0.2-1.4-2.2-2-3.3-1.3c-0.1,0.1-0.2,0.1-0.7,0.2c-0.5,0.1-1,0.2-1.6,0.3
				c-0.9,0.2-1.9,0.3-2.7,0.8C722.5,552.2,724.8,556.1,727.2,554.5L727.2,554.5z"/>
		</g>
	</g>
	<g>
		<g>
			<defs>
				<path id="SVGID_1_" d="M313.9,196.7H195.4c-2,0-3.9,0.6-5.2,1.6c-0.8,0.5-1.4,1.2-1.8,1.9c-0.5,0.8-0.7,1.7-0.7,2.6v171.6
					c0,3.4,3.5,6.1,7.8,6.1h118.5c4.3,0,7.8-2.8,7.8-6.1V202.8C321.7,199.5,318.2,196.7,313.9,196.7z M273.5,206.5v0.3
					c0,0.9-0.9,1.7-2,1.8c0,0,0,0,0,0c-0.1,0-0.2,0-0.4,0h-33.1c-1,0-1.9-0.5-2.2-1.2c-0.1-0.2-0.1-0.4-0.1-0.6v-0.3
					c0-1,1.1-1.8,2.3-1.8h33.1c0.7,0,1.3,0.2,1.8,0.6l0,0C273.3,205.6,273.5,206.1,273.5,206.5z"/>
			</defs>
			<clipPath id="SVGID_2_">
				<use xlink:href="#SVGID_1_"  style="overflow:visible;"/>
			</clipPath>
			<g class="st32">
				<path class="st3" d="M195.4,376.3c-2.2,0-3.6-1.2-3.6-1.9V202.8c0-0.1,0-0.3,0.1-0.4c0.1-0.2,0.4-0.4,0.6-0.6
					c0.7-0.5,1.8-0.8,2.8-0.8h40.2c-2.4,0.9-4,3.1-4,5.6v0.3c0,0.8,0.2,1.6,0.5,2.3c1,2.3,3.4,3.7,6.1,3.7h33.1c0.2,0,0.4,0,0.6,0
					l0.3,0c3.2-0.4,5.7-3,5.7-6v-0.3c0-1.6-0.7-3.2-2-4.3l0,0c-0.6-0.5-1.3-0.9-2-1.2h40.1c2.2,0,3.6,1.2,3.6,1.9v171.6
					c0,0.7-1.4,1.9-3.6,1.9H195.4z"/>
				<path class="st2" d="M313.3,205.1v166.9H196V205.1h31.4c-0.1,0.4-0.1,0.9-0.1,1.4v0.3c0,1.4,0.3,2.8,0.9,4
					c1.7,3.8,5.6,6.2,9.9,6.2h33.1c0.3,0,0.5,0,0.8,0h0.1l0.4,0c0.1,0,0.1,0,0.2,0c5.4-0.6,9.4-5,9.4-10.2v-0.3c0-0.5,0-0.9-0.1-1.4
					H313.3 M313.9,196.7H195.4c-2,0-3.9,0.6-5.2,1.6c-0.8,0.5-1.4,1.2-1.8,1.9c-0.5,0.8-0.7,1.7-0.7,2.6v171.6
					c0,3.4,3.5,6.1,7.8,6.1h118.5c4.3,0,7.8-2.8,7.8-6.1V202.8C321.7,199.5,318.2,196.7,313.9,196.7L313.9,196.7z M238.1,208.7
					c-1,0-1.9-0.5-2.2-1.2c-0.1-0.2-0.1-0.4-0.1-0.6v-0.3c0-1,1.1-1.8,2.3-1.8h33.1c0.7,0,1.3,0.2,1.8,0.6l0,0
					c0.4,0.3,0.6,0.7,0.6,1.2v0.3c0,0.9-0.9,1.7-2,1.8c0,0,0,0,0,0c-0.1,0-0.2,0-0.4,0H238.1L238.1,208.7z"/>
			</g>
		</g>
		<g>
			<circle class="st3" cx="254.4" cy="256" r="33.7"/>
			<circle class="st2" cx="254.4" cy="256" r="32"/>
			<circle class="st3" cx="254.4" cy="256" r="26.9"/>
			<path class="st7" d="M270.6,265.8c-6.7-4.4-11.1-5.5-11.1-5.5v-2.8c1.3-1.1,2.4-2.7,3.1-4.5c1,0,1.9-1.4,2.2-3.3
				c0.3-2-0.3-3.7-1.3-3.8c0,0,0,0,0,0v-5.3h0c0-0.5-0.2-1-0.4-1.5c-0.3-0.8-0.6-1.6-1.1-2.3c-0.4-0.6-0.8-1-1.3-1.4
				c-0.6-0.4-1.4-0.7-1.8-1.3c0.2-0.2,0.4-0.4,0.6-0.6c-0.8,0.3-2.8,0.2-3.8,0.2c0.3-0.4,0.4-0.9,0.5-1.4c-1,0.9-2.6,1.3-3.9,1.8
				c-1.3,0.5-2.5,1-3.6,1.8c-0.8,0.6-1.6,1.2-2.2,2c-0.2,0.2-0.3,0.6-0.5,1c-0.3,0.6-0.5,1.1-0.5,1.8h0v5.4
				c-0.9,0.3-1.5,1.9-1.2,3.8c0.3,1.7,1.1,3,2,3.2c0.7,1.8,1.8,3.4,3.1,4.5v2.8c0,0-4.5,1.1-11.1,5.5c-2.3,1.5-3.6,3.5-4.3,5.3
				c4.3,5.8,10.9,9.7,18.4,10.3c0.7,0,1.4,0,2.1,0c0.7,0,1.4,0,2.1,0c7.5-0.6,14.2-4.5,18.4-10.3C274.2,269.2,273,267.3,270.6,265.8
				z"/>
		</g>
		<g>
			<rect x="207.3" y="296.6" class="st7" width="94.6" height="2.5"/>
			<rect x="207.3" y="309.1" class="st7" width="94.6" height="2.5"/>
			<rect x="207.3" y="321.5" class="st7" width="94.6" height="2.5"/>
			<rect x="207.3" y="333.9" class="st7" width="94.6" height="2.5"/>
			<rect x="207.3" y="346.3" class="st7" width="94.6" height="2.5"/>
			<rect x="207.3" y="358.7" class="st7" width="94.6" height="2.5"/>
		</g>
	</g>
	
		<rect x="660" y="20.2" transform="matrix(0.9939 -0.1102 0.1102 0.9939 -8.1602 81.3413)" class="st17" width="143.3" height="188.6"/>
	<polygon class="st33" points="716.4,21.3 661.7,27.3 661.7,134.1 670.1,209.9 726.9,209.9 805,201.2 805,126.2 793.4,21.3 	"/>
	<rect x="661.7" y="16" class="st3" width="143.3" height="188.6"/>
	<line class="st34" x1="678.2" y1="65.1" x2="788.4" y2="65.1"/>
	<line class="st34" x1="678.3" y1="80.9" x2="788.3" y2="80.9"/>
	<line class="st34" x1="678.3" y1="73" x2="788.3" y2="73"/>
	<line class="st34" x1="678.3" y1="95.8" x2="788.3" y2="95.8"/>
	<line class="st34" x1="678.3" y1="87.9" x2="788.3" y2="87.9"/>
	<line class="st34" x1="761.9" y1="180.5" x2="788" y2="180.5"/>
	<line class="st34" x1="761.9" y1="172.6" x2="788" y2="172.6"/>
	<g>
		<path class="st2" d="M715.7,178.8c-3.4,10.1-14.5,15.6-24.6,12.2c-10.1-3.4-15.6-14.5-12.2-24.6c3.4-10.1,14.5-15.6,24.6-12.2
			C713.7,157.7,719.1,168.7,715.7,178.8z M679.7,166.7c-3.3,9.7,1.9,20.3,11.6,23.5c9.7,3.3,20.3-1.9,23.5-11.6
			c3.3-9.7-1.9-20.3-11.6-23.5S683,157,679.7,166.7z"/>
	</g>
	<g>
		<path class="st2" d="M713.2,178c-1.1,3.2-3.1,5.9-5.7,8l-0.5-0.7c2.5-1.9,4.4-4.5,5.4-7.5c1.1-3.1,1.1-6.5,0.2-9.6l0.9-0.3
			C714.4,171.2,714.3,174.7,713.2,178z"/>
	</g>
	<g>
		<path class="st2" d="M682.1,177.2l-0.9,0.3c-1-3.3-0.9-6.9,0.2-10.2c1.1-3.2,3.1-5.9,5.7-8l0.5,0.7c-2.5,1.9-4.4,4.5-5.4,7.5
			C681.2,170.7,681.1,174,682.1,177.2z"/>
	</g>
	<g>
		<path class="st2" d="M710.8,177c-2.5,7.3-10.4,11.2-17.7,8.8c-7.3-2.5-11.2-10.4-8.8-17.7c2.5-7.3,10.4-11.2,17.7-8.8
			C709.4,161.8,713.3,169.7,710.8,177z M685.2,168.4c-2.3,6.8,1.4,14.3,8.2,16.6c6.8,2.3,14.3-1.4,16.6-8.2
			c2.3-6.8-1.4-14.3-8.2-16.6C694.9,157.8,687.5,161.5,685.2,168.4z"/>
	</g>
	<line class="st34" x1="678.4" y1="102.7" x2="788.4" y2="102.7"/>
	<line class="st35" x1="678.4" y1="117.7" x2="788.4" y2="117.7"/>
	<line class="st34" x1="678.4" y1="109.8" x2="788.4" y2="109.8"/>
	<circle class="st2" cx="697.3" cy="172.6" r="10.9"/>
	<g>
		<path class="st36" d="M793.1,174.5c-2.2,1.9-4.6,3.7-7.4,4.9c-0.6,0.3-1.3,0.5-1.9,0.6c-1,0.2-1.6,0-2-0.9c-0.4-1,0-2-0.1-3.1
			c0-0.2-0.1-0.4-0.3-0.4c-0.8-0.1-1.5,0.8-2.1,1.3c-0.4,0.4-0.8,0.8-1.2,1.2c0.3-1.2,0.3-2.4-0.1-3.3c0-0.1-0.2-0.2-0.3-0.2
			c-1.7,1-3.1,2.8-4.4,4.2c-0.3,0.4-0.6,0.7-0.9,1.1c0-0.1,0-0.2-0.1-0.4c0.4-0.3,0.7-0.7,0.9-1c0.7-1,1.1-2.6,0.5-3.7
			c-0.9-1.7-2.7-0.6-3.7,0.4c-0.3,0.3-0.1,1.4,0.3,1c0.4-0.4,1.5-1.4,2.1-1.1c0.3,0.5,0.6,1,0.8,1.5c-0.1,0.2-0.2,0.4-0.3,0.6
			c-0.2,0.4-0.5,0.8-0.9,1.1c-0.2,0.2-0.6,0.5-1,0.6c-0.1,0-0.2,0.1-0.4,0.1c0,0-0.1,0-0.1,0c-0.1,0-0.2,0-0.3,0
			c-1.1-0.1-0.8-1.7-0.5-2.5c0.1-0.2-0.1-1.3-0.4-0.8c-0.4,0.5-0.7,1.1-1.2,1.6c-0.6,0.6-1.5,1.8-2.4,1.9c-0.4,0.1-0.8,0.1-0.9-0.5
			c0-0.2,0.2-0.7,0.3-0.8c0.3-0.8,0.6-1.4,0.8-2.2c0.1-0.2,0.1-0.9-0.3-0.9c-1-0.1-2.2,0.6-3.1,0.9c-0.7,0.2-1.5,0.5-2.2,0.8
			c0-0.3,0-0.6,0-0.9c0-2.4-0.7-5.2,0.2-7.6c0.4-1.3,1.4-1.9,2.7-2.3c0.6-0.2,2.6-0.7,3.4-0.2c0,0.2,0.1,0.4,0.3,0.3
			c0,0,0.1,0,0.1,0c0.4-0.1,0.3-0.9,0.2-1.1c-0.7-1-2.7-0.5-3.6-0.3c-1.3,0.3-2.6,1-3.2,2.2c-1.6,3.1-0.3,6.8-0.7,10.2
			c-0.3,0.1-0.6,0.2-0.8,0.4c-2.1,1-4.1,2.3-5.8,3.8c-1,0.9-2.2,2.4-1.7,3.8c0.4,1.5,2.1,1.2,3.3,0.7c3.1-1.2,5-4.5,5.6-7.7
			c0.7-0.3,1.5-0.6,2.2-0.8c0.7-0.2,1.7-0.7,2.6-0.9c-0.6,1.4-1.6,3.4-0.7,4.4c1,1.1,2.9-0.9,4.2-2.3c-0.1,0.8,0,1.6,0.6,2
			c0.6,0.4,1.3,0.3,1.9,0c0.3,0,0.4,0.2,0.4,0.5c-0.9,1.1-1.8,2.3-2.6,3.5c-1.1,1.6-2.2,3.2-2.9,5c-0.3,0.7-0.8,1.9-0.4,2.6
			c1,1.8,5-5.8,5.4-6.6c0.2-0.5,0.9-2.2,1.1-3.7c0.5-0.7,1.1-1.3,1.7-1.9c0.9-1,1.9-2.1,3-3c1.1-1,0.7,0.6,0.5,1.3
			c-0.2,0.7-0.5,1.6-0.9,2.2c-0.2,0.3,0,1.5,0.3,1c0.6-0.9,1.3-1.7,2-2.4c0.5-0.5,1.4-1.6,2.3-1.8c0,1.1-0.5,2.1,0,3.2
			c0.6,1.3,1.9,1.4,3.1,1.1c3.5-0.8,6.5-3.3,9.2-5.6C793.7,175.3,793.5,174.2,793.1,174.5z M759.6,178.3c-0.6,2.1-1.9,4.2-3.8,5.5
			c-0.7,0.5-1.9,1.1-2.8,1c-1.9-0.3,0-2.2,0.5-2.7c1.7-1.5,3.7-2.7,5.7-3.7c0.1-0.1,0.3-0.1,0.4-0.2
			C759.7,178.2,759.7,178.2,759.6,178.3z M770.6,184.5c-0.6,1.4-1.4,2.8-2.3,4.1c-0.5,0.7-1,1.3-1.5,1.9c-0.5,0.5-0.6,0.7-0.4,0
			c0.4-1.4,1.3-2.8,2.1-4c0.9-1.4,1.9-2.7,2.9-4C771.1,183.4,770.7,184.3,770.6,184.5z"/>
		<path class="st36" d="M765.9,172c-0.4,0.7-0.1,1.5,0.5,2c0.3,0.3,0.5-0.7,0.3-0.9c-0.1-0.1-0.3-0.2-0.4-0.4c0,0,0.1-0.1,0.1-0.1
			c0.1-0.1,0.2-0.2,0.3-0.3c0.3-0.2,0.7-0.5,1.1-0.6c0.4-0.1,0.3-1.1,0-1C767.1,170.8,766.2,171.4,765.9,172z"/>
	</g>
	<path class="st37" d="M805,106.1l-16.7,4.1l1.1,4.4l-8.5,2.2l0.6,2.5l-4.2,1.3c-2,0.6-4.2,0.3-6-0.8l-19.5-12.2
		c-2.6-1.6-5.9-2-8.8-1l-10.6,3.7l-7.4-1.6c-2.3-0.5-4.7,0-6.6,1.4l-17.1,12.6c-1.3,0.9-2.9,1.2-4.4,0.6l-6.8-2.4l0.6-2.2l-8.5-2.2
		l1.1-4.4l-21.8-5.4v51.7l9.7,2.4l0.1-0.6l0,0l1.6-6.4l8.1,2.1l1.2-4.6l16,6.6c0,0,0,0,0,0l0.7,0.3l0,0l0,0l0,0l7.1-7.3l-7.3,7.6
		c-4,4.2-0.6,11.2,5.2,10.4c1-0.1,2.1-0.5,3.3-1c0,0,1.1,8.8,10.3,8.1c0,0,1.3,8.9,11.5,6.7v0c0,0,0.1,0.2,0.3,0.5
		c0,0,0,0.1,0.1,0.1c0.7,0.9,2.5,2.7,5.7,2.6c0,0,0,0,0,0c0.4,0,0.9-0.1,1.4-0.1c0,0,0.1,0,0.1,0c1.5-0.3,3.3-0.9,5.4-2.2l1.9,1.9
		c2.6,2.6,6.7,2.8,9.1,0.3l0.1-0.1c2.4-2.5,2.2-6.6-0.4-9.3l0.5,0.5c2.4,2.4,6.2,2.4,8.5,0l1.1-1.1c1.4-1.4,1.9-3.4,1.7-5.3
		c1.9,0.2,4-0.5,5.4-2l0.1-0.1c2.2-2.2,2.5-5.5,1.2-8.1c1.9,0.4,4.1-0.1,5.6-1.7c1.3-1.3,1.8-3.1,1.7-4.8l10.9-3.4l0.9,3.6l8.1-2.1
		l1.6,6.4l0,0l0.1,0.6l7.9-2.5L805,106.1z"/>
	<path class="st38" d="M731.1,118.2l-33.8,35.1c-4,4.2-0.6,11.2,5.2,10.4c1-0.1,2.1-0.5,3.3-1c0,0,1.1,8.8,10.3,8.1
		c0,0,1.3,8.9,11.5,6.7c0,0,5,9.2,19-3.8c6.9-6.4,29.8-24.9,29.8-24.9L731.1,118.2z"/>
	<path class="st39" d="M828,97.9l-50.6,15.5c-2,0.6-4.2,0.3-6-0.8l-19.5-12.2c-2.6-1.6-5.9-2-8.8-1l-21.8,7.6l11.5,9.2L699,151.4
		c-4,4.2-0.6,11.2,5.2,10.4c1-0.1,2.1-0.5,3.3-1c0,0,1.1,8.8,10.3,8.1c0,0,1.3,8.9,11.5,6.7c0,0,5,9.2,19-3.8
		c6.9-6.4,29.8-24.9,29.8-24.9l58.8-18.4L828,97.9z"/>
	<path class="st40" d="M759,129.3c4.6-2.2,3.8-6.2,2-7.6l-14.2-11.3c-1.5-1.2-3.3-2.1-5.2-2.5l-14.1-3l-5.7,2l11.5,9.2l-9.3,9.7
		c1.4-0.1,8.2-0.6,13.9-3.2C737.7,122.6,749,133.9,759,129.3z"/>
	<path class="st41" d="M763.4,119.4l-14.2-11.3c-1.5-1.2-3.3-2.1-5.2-2.5l-18.9-4c-2.3-0.5-4.7,0-6.6,1.4l-17.1,12.6
		c-1.3,0.9-2.9,1.2-4.4,0.6l-25.7-9.2l-2.5,31.6l30.3,12.5l26.8-27.7c0,0,7.8-0.3,14.1-3.2c0,0,11.3,11.4,21.2,6.7
		C766,124.9,765.2,120.9,763.4,119.4z"/>
	<path class="st42" d="M758.5,126.6c-8,0.1-17.5-9.5-17.7-9.6c0,0-6.9,6.5-19.4,3.5c0,0-2,7.4-13.7,20.7c-2.2,2.5-5.7,3.3-8.8,2.1
		c-1.2-0.5-2.5-0.9-3.8-1.4c-3.3-1.2-5.5-4.3-5.4-7.9l0.7-20.2c-8.9-3.1-20.9,18.8-20.6,14.6l-0.8,10.2l29.6,12.2c0,0,0,0,0,0
		l0.7,0.3l0,0l0,0l4.9-5.1l21.9-22.6c0,0,7.8-0.3,14.1-3.2c-0.1,0,11.1,11.3,21.2,6.7c1.8-0.8,2.7-1.9,3.2-3
		C763.9,125.2,761.8,126.6,758.5,126.6z"/>
	<path class="st38" d="M738.4,175.6c-8.5-8.3-6.7-13.5-6.7-13.5l45.1-21.4l0.1,0c3.6-0.8,6-4,5.8-7.7l-1.1-20.9l55,15.4l0.3,1
		l-58.8,18.4c0,0-22.9,18.5-29.8,24.9c-14,12.9-19,3.8-19,3.8S733.1,179.8,738.4,175.6z"/>
	<g>
		<path class="st38" d="M707.1,162.6c7.1-6.7,14.3-13.4,21.4-20.1c0.6-0.6-0.3-1.5-0.9-0.9c-7.1,6.7-14.3,13.4-21.4,20.1
			C705.6,162.2,706.5,163.2,707.1,162.6L707.1,162.6z"/>
	</g>
	<g>
		<path class="st38" d="M717.4,170.7c6.9-6.6,13.7-13.3,20.6-19.9c0.6-0.6-0.3-1.5-0.9-0.9c-6.9,6.6-13.7,13.3-20.6,19.9
			C715.9,170.3,716.8,171.3,717.4,170.7L717.4,170.7z"/>
	</g>
	<g>
		<path class="st38" d="M728.9,177.4c6.1-5.9,12.2-11.7,18.2-17.6c0.6-0.6-0.3-1.5-0.9-0.9c-6.1,5.9-12.2,11.7-18.2,17.6
			C727.4,177,728.3,178,728.9,177.4L728.9,177.4z"/>
	</g>
	<path class="st42" d="M733.3,158.6L733.3,158.6c2.5-2.6,6.6-2.4,9.2,0.2l-0.5-0.5c-2.4-2.4-2.4-6.3,0-8.7l1.1-1.1
		c1.4-1.4,3.3-2,5.2-1.7c-0.2-2,0.5-4,1.9-5.5l0.1-0.1c2.7-2.7,7-2.7,9.7,0l1.3,1.3c-0.2-1.8,0.3-3.7,1.7-5.1c2.3-2.4,6.2-2.4,8.5,0
		l5.5,5.6c2.4,2.4,2.4,6.3,0,8.7c-1.5,1.5-3.6,2.1-5.6,1.7c1.4,2.6,1,5.9-1.2,8.1l-0.1,0.1c-1.5,1.5-3.5,2.2-5.4,2
		c0.3,1.9-0.3,3.8-1.7,5.3l-1.1,1.1c-2.3,2.4-6.2,2.4-8.5,0l-5.7-5.7l5.2,5.3c2.6,2.6,2.8,6.8,0.4,9.3l-0.1,0.1
		c-2.4,2.5-6.5,2.3-9.1-0.3l-10.4-10.5C731.1,165.2,730.9,161.1,733.3,158.6z"/>
	<polygon class="st3" points="840,134.1 790.5,146.9 780.9,109.6 843.9,93.4 	"/>
	
		<rect x="635.4" y="89.6" transform="matrix(0.2498 -0.9683 0.9683 0.2498 372.8323 725.5224)" class="st3" width="38.4" height="65.1"/>
	<g>
		<path class="st42" d="M753.9,169.1c-3.8-3.8-7.6-7.7-11.4-11.5c-0.6-0.6-1.5,0.3-0.9,0.9c3.8,3.8,7.6,7.7,11.4,11.5
			C753.6,170.6,754.5,169.7,753.9,169.1L753.9,169.1z"/>
	</g>
	<polygon class="st43" points="631.9,136.2 681.3,148.9 682.4,109.5 620.3,124.3 	"/>
	<polygon class="st44" points="614.1,87.9 614.1,139 671.6,153.2 683.5,105.1 	"/>
	<polygon class="st43" points="840,134.1 790.6,146.9 789.4,107.4 832.4,117.7 	"/>
	<polygon class="st45" points="614.1,128.8 614.1,139.6 671.4,153.8 674,143.6 	"/>
	<polygon class="st46" points="850.1,87.8 788.4,103.1 800.3,151.2 850.1,138.8 	"/>
	<polygon class="st47" points="850.1,128.6 797.9,141.6 800.4,151.7 850.1,139.4 	"/>
	<g>
		<path class="st41" d="M733.7,166.4c3.2,3.1,6.3,6.2,9.5,9.2c2.2,2.2,6.2,2.4,8.3,0c2.1-2.3,2.4-6,0-8.3c-3.2-3.1-6.3-6.2-9.5-9.2
			c-2.2-2.2-6.2-2.4-8.3,0C731.5,160.4,731.3,164.1,733.7,166.4L733.7,166.4z"/>
	</g>
	<g>
		<path class="st41" d="M741.9,156.6c3.3,3,6.6,5.9,9.8,8.9c2.2,2,5.9,2.3,8.1,0c2-2.2,2.4-5.9,0-8.1c-3.3-3-6.6-5.9-9.8-8.9
			c-2.2-2-5.9-2.3-8.1,0C739.9,150.7,739.5,154.5,741.9,156.6L741.9,156.6z"/>
	</g>
	<g>
		<path class="st41" d="M751.3,148.4c3.3,3,6.6,5.9,9.8,8.9c2.3,2.1,6.1,2.4,8.3,0c2.1-2.3,2.4-6.1,0-8.3c-3.3-3-6.6-5.9-9.8-8.9
			c-2.3-2.1-6.1-2.4-8.3,0C749.2,142.3,748.8,146.2,751.3,148.4L751.3,148.4z"/>
	</g>
	<g>
		<path class="st41" d="M764,142.3c2.4,2.2,4.8,4.3,7.2,6.5c1.7,1.5,4.5,1.8,6.1,0c1.5-1.7,1.8-4.5,0-6.1c-2.4-2.2-4.8-4.3-7.2-6.5
			c-1.7-1.5-4.5-1.8-6.1,0C762.5,137.8,762.2,140.6,764,142.3L764,142.3z"/>
	</g>
	<g>
		<path class="st3" d="M693.9,179.2c-1.5-0.8-2.7-2-3.4-3.5c-0.5-1.1-2.1-0.1-1.6,0.9c0.9,1.8,2.3,3.3,4.1,4.2
			C694.1,181.4,695,179.8,693.9,179.2L693.9,179.2z"/>
	</g>
	<g>
		<path class="st3" d="M699.7,179.6c-0.8,0.2-1.5,0.4-2.4,0.4c-1.2,0-1.2,1.9,0,1.9c1,0,1.9-0.2,2.9-0.4
			C701.3,181.1,700.8,179.3,699.7,179.6L699.7,179.6z"/>
	</g>
	<g>
		<path class="st3" d="M701.2,166.2c2.7,1.7,4,4.7,3.5,7.8c-0.2,1.2,1.6,1.7,1.8,0.5c0.7-4-0.9-7.8-4.3-9.9
			C701.1,163.9,700.2,165.5,701.2,166.2L701.2,166.2z"/>
	</g>
	<g>
		<path class="st3" d="M694.3,165.7c1-0.4,2-0.6,3-0.6c1.2,0,1.2-1.9,0-1.9c-1.2,0-2.4,0.2-3.5,0.7c-0.5,0.2-0.8,0.6-0.6,1.1
			C693.3,165.5,693.8,165.9,694.3,165.7L694.3,165.7z"/>
	</g>
	<g>
		<path class="st3" d="M689.9,171.8c0.2-1.5,0.7-2.8,1.6-3.9c0.7-1-0.9-1.9-1.6-0.9c-1.1,1.4-1.7,3.1-1.9,4.9
			C687.9,173,689.7,173,689.9,171.8L689.9,171.8z"/>
	</g>
	<text transform="matrix(1 0 0 1 675.7363 47.4379)" class="st18 st19 st48">APPLICATION</text>
	<line class="st21" x1="680.9" y1="52.8" x2="783.9" y2="52.8"/>
</g>
</svg>
