<?xml version="1.0" standalone="no"?>
<!DOCTYPE svg PUBLIC "-//W3C//DTD SVG 20010904//EN"
 "http://www.w3.org/TR/2001/REC-SVG-20010904/DTD/svg10.dtd">
<svg version="1.0" xmlns="http://www.w3.org/2000/svg"
 width="1366.000000pt" height="768.000000pt" viewBox="0 0 1366.000000 768.000000"
 preserveAspectRatio="xMidYMid meet">
<metadata>
Created by potrace 1.15, written by Peter Selinger 2001-2017
</metadata>
<g transform="translate(0.000000,768.000000) scale(0.100000,-0.100000)"
fill="#000000" stroke="none">
<path d="M0 3840 l0 -3840 6830 0 6830 0 0 3840 0 3840 -6830 0 -6830 0 0
-3840z m6838 3038 c2 -11 -53 -63 -166 -158 l-168 -141 42 -417 c51 -492 51
-489 38 -501 -61 -60 -302 -251 -314 -249 -8 2 -16 11 -18 20 -3 15 58 70 265
244 l22 19 -44 430 c-25 237 -45 441 -45 455 0 21 33 53 176 173 100 83 184
147 193 145 9 -2 17 -11 19 -20z m772 -281 c0 -5 7 -7 15 -3 11 4 29 -24 68
-108 30 -62 61 -116 71 -119 9 -4 16 -13 16 -22 0 -9 9 -15 26 -15 22 0 25 -4
22 -30 -2 -26 4 -34 72 -81 41 -28 96 -67 122 -87 l47 -35 -23 -18 c-23 -18
-26 -17 -157 30 l-134 48 -39 -46 c-21 -25 -122 -129 -223 -229 -102 -101
-181 -187 -177 -192 5 -4 110 -76 234 -160 124 -85 251 -174 282 -198 l57 -44
-40 -34 -40 -33 -115 40 -116 41 -38 -31 c-42 -34 -74 -40 -84 -16 -3 8 -14
15 -24 15 -11 0 -26 7 -33 16 -11 14 -11 21 3 45 17 28 17 29 -8 35 -19 5 -35
-1 -64 -25 -42 -34 -67 -39 -76 -16 -4 8 -14 15 -23 15 -38 0 -53 40 -26 70
14 16 10 19 -57 44 -40 14 -80 26 -88 26 -8 0 -41 -23 -73 -51 l-57 -51 30
-35 c19 -22 29 -41 25 -52 -6 -20 26 -54 53 -56 13 -1 590 -162 840 -234 31
-9 36 -6 174 110 138 116 170 134 182 104 7 -18 2 -23 -170 -167 l-142 -118
-423 120 c-233 65 -425 118 -427 116 -2 -2 9 -22 23 -45 l27 -41 -100 -107
c-76 -82 -98 -111 -90 -121 7 -8 7 -16 2 -21 -18 -15 -269 -225 -273 -227 -1
-2 29 -51 69 -110 171 -255 256 -505 282 -826 l12 -148 49 0 c30 0 54 6 63 15
13 12 49 15 195 15 l179 0 0 -30 0 -30 -87 0 -88 0 3 -75 c4 -88 -12 -82 167
-60 65 8 120 15 121 15 1 0 5 54 9 121 6 88 11 122 21 126 9 3 14 21 14 49 l0
44 -67 0 c-38 0 -78 3 -90 6 -20 5 -23 2 -23 -21 0 -20 -4 -25 -17 -21 -10 3
-38 10 -63 16 -25 7 -58 19 -73 27 -41 21 -137 118 -137 138 0 28 61 80 121
103 79 29 188 42 359 42 l148 0 51 92 c28 50 51 97 51 104 0 6 -13 14 -30 18
-25 5 -30 10 -30 36 0 32 10 37 85 42 35 3 42 8 62 43 29 51 29 65 -2 65 -31
0 -50 32 -35 60 9 16 21 20 65 20 l54 0 57 101 c60 106 75 119 141 119 35 0
36 0 30 -35 -6 -34 -5 -35 29 -35 29 0 34 -3 30 -17 -10 -35 -156 -599 -156
-604 0 -4 64 -9 143 -13 128 -7 351 -30 402 -42 17 -4 31 16 89 121 68 122 70
125 103 125 30 0 34 -3 29 -20 -19 -64 -19 -65 -5 -52 7 6 23 12 36 12 13 0
23 -6 23 -12 0 -7 -16 -71 -35 -143 -35 -129 -35 -129 -15 -150 25 -27 25 -39
0 -56 -20 -13 -20 -16 -6 -64 8 -27 26 -92 40 -142 l25 -93 -30 0 c-22 0 -32
7 -41 25 -6 14 -19 25 -29 25 -12 0 -35 30 -70 90 -28 50 -56 93 -60 96 -5 3
-55 -2 -112 -10 -118 -18 -329 -36 -428 -36 -57 0 -69 -3 -69 -16 0 -12 128
-488 176 -656 5 -16 -2 -18 -51 -18 -49 0 -57 3 -67 25 -6 14 -19 25 -28 25
-11 0 -34 29 -63 79 -46 78 -47 80 -89 83 -35 2 -44 7 -46 24 -2 15 -12 24
-32 27 -56 12 -47 77 11 77 29 0 29 0 14 29 -12 25 -22 30 -57 33 -35 2 -44 7
-46 25 -2 15 -11 23 -29 25 -58 7 -55 68 4 78 l31 5 -42 72 -41 73 -73 0 -73
0 7 -50 c6 -42 4 -50 -10 -50 -15 0 -19 -23 -20 -121 0 -8 97 -158 215 -332
l214 -316 195 -3 c187 -3 195 -4 195 -23 0 -19 -8 -20 -211 -23 l-210 -2 -205
300 c-112 166 -205 295 -207 287 -2 -9 -21 -17 -50 -20 -26 -3 -91 -11 -144
-18 -85 -10 -98 -14 -98 -30 0 -18 -11 -19 -200 -19 l-199 0 -11 -42 c-52
-204 -107 -347 -189 -486 -59 -100 -177 -255 -250 -327 -34 -33 -61 -63 -61
-67 0 -5 61 -77 135 -161 74 -83 135 -159 135 -168 0 -25 -11 -29 -34 -14 -21
14 -26 12 -76 -33 l-54 -48 77 -43 c42 -23 77 -48 77 -55 0 -9 78 -56 94 -56
1 0 13 24 26 53 13 28 25 53 26 55 4 7 65 -30 62 -37 -27 -68 -66 -141 -75
-141 -22 0 -83 34 -83 46 0 12 -88 71 -94 63 -1 -2 -40 -151 -86 -331 -75
-296 -82 -330 -68 -345 8 -10 65 -75 126 -145 109 -124 127 -158 83 -158 -9 0
-77 68 -151 152 l-134 152 89 352 c50 194 86 356 82 360 -4 4 -13 2 -19 -4 -7
-7 -15 -12 -19 -12 -4 0 -74 78 -155 173 -81 94 -151 176 -155 181 -4 4 -34
-7 -66 -27 -170 -102 -355 -176 -553 -219 -93 -20 -132 -23 -335 -22 -254 0
-336 12 -527 75 -282 94 -630 325 -824 547 -327 376 -472 852 -409 1335 49
372 213 705 480 972 133 133 258 223 425 309 411 209 861 242 1301 96 205 -68
375 -164 572 -324 59 -47 109 -86 113 -86 5 0 113 88 268 219 17 15 22 12 80
-53 l62 -68 95 102 c52 56 93 108 93 115 -1 6 -31 53 -68 102 -36 50 -64 97
-61 105 2 7 -8 28 -23 46 l-28 33 -66 -53 c-45 -35 -65 -58 -61 -68 13 -36 6
-45 -60 -79 -77 -39 -172 -54 -198 -29 -8 7 -26 19 -41 25 -58 26 -45 103 35
214 47 66 82 100 270 264 l58 50 -16 78 c-8 43 -15 81 -15 83 0 2 -6 4 -14 4
-8 0 -22 10 -30 22 -9 12 -18 19 -22 15 -12 -12 -44 13 -44 34 0 12 18 38 40
58 33 30 38 41 34 64 -4 18 -13 27 -25 27 -11 0 -22 7 -25 15 -4 8 -14 15 -23
15 -22 0 -41 19 -41 41 0 10 18 32 40 51 l40 33 -23 122 -24 121 43 36 43 36
16 -31 c12 -22 20 -28 27 -21 8 8 50 -71 146 -271 74 -155 138 -286 142 -290
4 -5 54 28 111 73 95 75 354 253 380 262 7 2 2 50 -17 147 l-27 144 24 18 c22
17 25 17 37 2 6 -9 12 -21 12 -26z m908 -1734 l3 -23 -224 0 -224 0 -258 -380
-258 -380 -203 0 c-167 0 -204 3 -214 15 -10 12 -10 18 0 30 10 12 49 15 202
17 l191 3 150 220 c82 121 196 289 254 373 l104 152 237 -2 237 -3 3 -22z
m-1449 -2215 c67 -76 128 -138 136 -138 7 0 208 25 446 55 238 31 437 55 444
53 19 -5 310 -339 310 -357 0 -9 -9 -17 -20 -19 -16 -2 -55 36 -160 157 -85
97 -147 160 -159 160 -10 1 -211 -24 -447 -54 -235 -30 -432 -55 -438 -55 -8
0 -57 53 -263 286 -22 24 -14 57 12 52 10 -2 72 -65 139 -140z m1771 -13 c11
-33 12 -34 35 -19 13 8 26 11 28 6 3 -4 52 -136 108 -293 56 -156 103 -286
104 -287 2 -2 68 35 146 83 79 47 192 110 251 138 l109 52 -6 85 c-3 47 -8
112 -12 146 -5 57 -4 61 21 78 l27 17 15 -36 c14 -34 15 -35 38 -20 24 16 24
16 52 -62 73 -203 70 -198 100 -203 26 -5 29 -9 27 -40 -2 -33 4 -40 107 -125
60 -49 110 -92 110 -95 0 -3 -10 -11 -21 -19 -24 -14 -25 -14 -191 60 -47 22
-90 39 -95 39 -5 0 -22 -14 -39 -31 -43 -46 -254 -221 -362 -302 -91 -67 -94
-71 -76 -86 77 -62 524 -444 524 -447 0 -1 -19 -16 -42 -32 -49 -33 -38 -35
-186 34 -40 19 -77 34 -84 34 -6 0 -26 -12 -45 -26 -37 -28 -73 -25 -73 7 0
20 -15 26 -25 9 -9 -15 -31 -12 -49 6 -22 21 -20 31 9 58 13 13 22 26 18 29
-12 13 -48 6 -73 -13 -33 -26 -70 -26 -77 0 -6 22 -11 24 -32 11 -42 -27 -70
44 -29 71 22 15 21 16 -49 52 l-73 36 -154 -104 c-152 -102 -227 -139 -315
-156 -36 -6 -59 -3 -118 16 -60 20 -94 24 -188 24 -96 0 -115 3 -115 15 0 12
18 15 105 15 93 0 105 2 105 18 0 39 52 124 112 184 35 35 124 106 198 157 74
52 135 94 136 95 6 6 -19 193 -27 202 -6 7 -8 17 -5 23 3 5 -7 4 -24 -2 -25
-9 -33 -9 -46 5 -23 23 -11 49 36 78 22 14 40 33 40 43 0 31 -25 97 -35 93 -5
-2 -17 -7 -26 -11 -18 -7 -49 18 -49 41 0 8 21 29 46 47 l46 32 -6 75 c-4 41
-9 96 -12 121 -5 45 -4 47 37 78 24 17 46 31 50 31 4 0 13 -16 19 -35z"/>
<path d="M5818 4045 c-39 -22 -54 -75 -33 -119 29 -61 100 -71 151 -21 72 72
-27 191 -118 140z"/>
<path d="M4434 3858 l26 -43 297 -3 298 -2 14 22 c8 13 21 33 29 46 l14 22
-351 0 -352 0 25 -42z"/>
<path d="M5053 3652 c-84 -136 -173 -280 -198 -319 l-45 -73 248 0 247 0 43
69 c23 37 42 71 42 75 0 3 -75 6 -166 6 l-166 0 25 43 25 42 127 5 126 5 44
70 45 70 -120 3 c-66 1 -120 5 -120 7 0 2 12 25 27 50 l28 45 172 0 171 0 33
53 c17 28 38 62 47 75 l14 22 -248 0 -249 0 -152 -248z"/>
<path d="M4553 3668 l25 -43 182 0 182 0 25 43 25 42 -232 0 -232 0 25 -42z"/>
</g>
</svg>
