<?xml version="1.0" encoding="utf-8"?>
<!-- Generator: Adobe Illustrator 22.1.0, SVG Export Plug-In . SVG Version: 6.00 Build 0)  -->
<svg version="1.1" id="Layer_1" xmlns="http://www.w3.org/2000/svg" xmlns:xlink="http://www.w3.org/1999/xlink" x="0px" y="0px"
	 viewBox="0 0 1000 1000" style="enable-background:new 0 0 1000 1000;" xml:space="preserve">
<style type="text/css">
	.st0{fill:#17C671;}
	.st1{fill:#F7F7F7;}
	.st2{fill:#FFFFFF;}
	.st3{fill:#D8D8D8;}
	.st4{opacity:0.5;fill:#D8D8D8;}
	.st5{fill:#3B3C3C;}
	.st6{opacity:0.7;fill:#FFFFFF;}
	.st7{fill:#EA493D;}
	.st8{fill:#4DBC13;}
	.st9{fill:#F4DB2A;}
</style>
<path class="st0" d="M840.4,762.2L394,515.3c-5.6-3.1-15.4-3.1-21.9,0L45.8,669.8c-7.4,3.5-8.9,9.2-3.5,12.7l442.1,283.5
	c6.8,4.3,18.4,4.3,25.9,0l330.5-190.2C847.4,772.1,847.2,766,840.4,762.2z"/>
<g>
	<path class="st1" d="M280.7,318.3L172.4,260c-9.3-5-16.8,3.1-16.8,18v82.6c0,14.9,7.5,31.3,16.8,36.6l70.7,40.3l31.5,67.9v-49.9
		l6.2,3.5c9.8,5.6,17.8-2.4,17.8-17.8v-85.4C298.6,340.4,290.5,323.5,280.7,318.3z"/>
</g>
<g>
	<path class="st0" d="M261.6,332l-108.4-58.3c-9.3-5-16.8,3.1-16.8,18v82.6c0,14.9,7.5,31.3,16.8,36.6l70.7,40.3l31.5,67.9v-49.9
		l6.2,3.5c9.8,5.6,17.8-2.4,17.8-17.8v-85.4C279.4,354.1,271.4,337.2,261.6,332z"/>
	<g>
		<path class="st2" d="M202.7,411.3c-3.4-2.1-6.6-4.4-9.6-6.9c-3-2.5-5.5-5-7.4-7.5v-16.2c1.3,1.5,2.7,2.9,3.9,4.2
			c1.3,1.3,2.6,2.5,3.9,3.7c1.4,1.2,2.8,2.3,4.3,3.4c1.5,1.1,3.1,2.2,4.9,3.2V377c-2.2-1.7-4.4-3.6-6.5-5.7c-2.1-2-4.1-4.4-5.8-7.1
			c-1.7-2.7-3.1-5.7-4.2-9.1c-1.1-3.4-1.6-7.3-1.6-11.8c0-3.6,0.4-6.6,1.2-9c0.8-2.4,2-4.2,3.6-5.4c1.6-1.2,3.5-1.9,5.7-1.9
			c2.2,0,4.8,0.4,7.6,1.5V320l8.3,4.5v8.3c2.6,1.6,5.1,3.5,7.8,5.6c2.6,2.1,5.1,4.4,7.3,6.9v16.5c-5.4-5.7-10.4-10.1-15.1-12.9v18.5
			c2.2,1.8,4.4,3.7,6.5,5.8c2.2,2.1,4.1,4.5,5.8,7.2c1.7,2.7,3.1,5.8,4.2,9.2c1.1,3.4,1.6,7.4,1.6,11.8c0,7.1-1.6,11.8-4.7,14.1
			c-3.1,2.3-7.6,2.3-13.4,0v8.6l-8.3-4.7V411.3z M196,348.8c0,2.3,0.6,4.4,1.7,6.2c1.1,1.8,2.8,3.7,5.1,5.6v-15.9
			c-2.5-0.9-4.3-1-5.3-0.2C196.4,345.4,196,346.8,196,348.8z M217.5,395.2c0-2.3-0.5-4.4-1.6-6.2c-1.1-1.8-2.7-3.6-4.9-5.4v15.6
			C215.3,400.8,217.5,399.5,217.5,395.2z"/>
	</g>
</g>
<g>
	<path class="st3" d="M847.2,719.5L399.1,472.3c-5.6-3.1-10.1-12.5-10.1-21V50.3c0-8.5,4.5-13.4,10.1-10.9l448.1,200.3
		c6.9,3.1,12.4,13.3,12.4,22.8v446.7C859.6,718.7,854,723.3,847.2,719.5z"/>
	<path class="st0" d="M832.7,691.5L410.9,460.6c-5.6-3.1-10.1-12.5-10.1-21V73.8c0-8.6,4.5-13.4,10.1-10.9l421.7,190.3
		c6.8,3.1,12.4,13.3,12.4,22.7v405.1C845,690.6,839.5,695.2,832.7,691.5z"/>
</g>
<path class="st1" d="M812.8,254.5L383.3,59.2c-5.7-2.6-10.3,2.4-10.3,11.1v373.4c0,8.7,4.6,18.4,10.3,21.5l429.5,236.5
	c6.9,3.8,12.6-0.9,12.6-10.6V277.7C825.3,268.1,819.7,257.7,812.8,254.5z M817.8,673.5c0,9.7-5.6,14.4-12.5,10.6L389.5,456.3
	c-5.7-3.1-10.3-12.8-10.3-21.5V85.4c0-8.7,4.6-13.7,10.3-11.1l415.7,190.2c6.9,3.2,12.5,13.6,12.5,23.2V673.5z"/>
<g>
	<path class="st4" d="M833.9,436.8c-31.2,28-80.8,3.4-110.9-53.9c-29.7-56.5-29.7-124.8,0-153.5c30.1-29.1,79.7-7.1,110.9,50.1
		C865.5,337.5,865.5,408.4,833.9,436.8z"/>
	<path class="st1" d="M965.6,654.9L857.5,453.5c-0.5-0.9-1.1-1.8-1.7-2.5c29.7-39.6,26.7-118.3-9-183.6
		c-38.4-70.2-99.3-96.7-136.1-60.9c-36.2,35.2-36.2,118.6,0,187.7c33.6,64.3,87.4,95.2,125.7,73.9c0.3,1,0.7,1.9,1.2,2.9l107.2,201
		c2.6,4.9,6.9,7.2,9.6,5l11.2-9.2C968.2,665.7,968.2,659.9,965.6,654.9z M723,382.9c-29.7-56.5-29.7-124.8,0-153.5
		c30.1-29.1,79.7-7.1,110.9,50.1c31.6,58,31.6,128.9,0,157.3C802.7,464.8,753.1,440.2,723,382.9z"/>
</g>
<g>
	<path class="st3" d="M484.5,927.9L42.3,644.4c-5.5-3.5-3.9-9.2,3.5-12.7l326.3-154.5c6.5-3.1,16.3-3.1,21.9,0l446.5,246.9
		c6.8,3.8,7,9.9,0.4,13.6L510.4,927.9C502.9,932.3,491.2,932.3,484.5,927.9z"/>
	<g>
		<g>
			<path class="st5" d="M402.5,524.1l-16.8-9.5c-1.6-0.9-1.4-2.3,0.5-3.2l8.2-4c1.8-0.9,4.6-0.9,6.2,0l16.8,9.4
				c1.6,0.9,1.4,2.3-0.4,3.2l-8.2,4C406.9,525,404.1,525,402.5,524.1z"/>
			<path class="st5" d="M428,538.4l-17-9.6c-1.6-0.9-1.4-2.4,0.4-3.3l8.2-4c1.8-0.9,4.6-0.9,6.2,0l17,9.5c1.6,0.9,1.4,2.4-0.4,3.3
				l-8.2,4C432.5,539.3,429.6,539.3,428,538.4z"/>
			<path class="st5" d="M453.8,552.9l-17.2-9.7c-1.6-0.9-1.4-2.4,0.4-3.3l8.2-4c1.8-0.9,4.7-0.9,6.3,0l17.2,9.6
				c1.6,0.9,1.5,2.4-0.4,3.3l-8.2,4.1C458.3,553.9,455.4,553.9,453.8,552.9z"/>
			<path class="st5" d="M479.9,567.6l-17.4-9.8c-1.6-0.9-1.5-2.4,0.4-3.3l8.2-4.1c1.8-0.9,4.7-0.9,6.3,0l17.4,9.7
				c1.6,0.9,1.5,2.4-0.3,3.4l-8.2,4.1C484.4,568.5,481.6,568.5,479.9,567.6z"/>
			<path class="st5" d="M506.3,582.5l-17.6-9.9c-1.7-0.9-1.5-2.4,0.4-3.4l8.2-4.1c1.8-0.9,4.7-0.9,6.3,0l17.6,9.9
				c1.7,0.9,1.5,2.5-0.3,3.4l-8.2,4.2C510.8,583.4,508,583.4,506.3,582.5z"/>
			<path class="st5" d="M533,597.5l-17.8-10c-1.7-0.9-1.5-2.5,0.3-3.4l8.2-4.2c1.8-0.9,4.7-0.9,6.4,0l17.8,10
				c1.7,0.9,1.6,2.5-0.3,3.4l-8.2,4.2C537.6,598.4,534.7,598.4,533,597.5z"/>
			<path class="st5" d="M560,612.7l-18-10.2c-1.7-1-1.6-2.5,0.3-3.5l8.2-4.2c1.8-0.9,4.7-0.9,6.4,0l18,10.1c1.7,1,1.6,2.5-0.2,3.5
				l-8.3,4.3C564.6,613.6,561.7,613.6,560,612.7z"/>
			<path class="st5" d="M587.3,628.1l-18.3-10.3c-1.7-1-1.6-2.5,0.3-3.5l8.3-4.3c1.8-1,4.7-1,6.5,0l18.3,10.2c1.7,1,1.6,2.5-0.2,3.5
				l-8.3,4.3C592,629,589.1,629,587.3,628.1z"/>
			<path class="st5" d="M615,643.6l-18.5-10.4c-1.7-1-1.6-2.6,0.2-3.5l8.3-4.3c1.8-1,4.8-1,6.5,0l18.5,10.3c1.7,1,1.7,2.6-0.2,3.6
				l-8.3,4.4C619.7,644.6,616.8,644.6,615,643.6z"/>
			<path class="st5" d="M643,659.4l-18.7-10.5c-1.8-1-1.7-2.6,0.2-3.6l8.3-4.4c1.8-1,4.8-1,6.5,0l18.7,10.5c1.8,1,1.7,2.6-0.1,3.6
				l-8.3,4.4C647.7,660.4,644.8,660.4,643,659.4z"/>
			<path class="st5" d="M671.3,675.3l-18.9-10.6c-1.8-1-1.7-2.6,0.1-3.6l8.3-4.4c1.8-1,4.8-1,6.6,0l18.9,10.6c1.8,1,1.7,2.6-0.1,3.6
				l-8.3,4.5C676.1,676.3,673.1,676.3,671.3,675.3z"/>
			<path class="st5" d="M700,691.4l-19.2-10.8c-1.8-1-1.7-2.7,0.1-3.7l8.3-4.5c1.8-1,4.8-1,6.6,0l19.2,10.7c1.8,1,1.8,2.7-0.1,3.7
				l-8.3,4.5C704.8,692.4,701.8,692.4,700,691.4z"/>
			<path class="st5" d="M729,707.7l-19.4-10.9c-1.8-1-1.8-2.7,0.1-3.7l8.3-4.6c1.8-1,4.8-1,6.7,0l19.4,10.8c1.8,1,1.8,2.7,0,3.7
				l-8.3,4.6C733.9,708.8,730.9,708.8,729,707.7z"/>
			<path class="st5" d="M758.4,724.3l-19.6-11c-1.8-1-1.8-2.7,0-3.8l8.3-4.6c1.8-1,4.9-1,6.7,0l19.6,11c1.9,1,1.9,2.7,0,3.8
				l-8.3,4.7C763.3,725.3,760.3,725.3,758.4,724.3z"/>
		</g>
		<g>
			<path class="st5" d="M369.3,538.2l-15.7-8.9c-1.2-0.7-1-1.7,0.4-2.4l18.4-8.9c1.4-0.7,3.4-0.7,4.5,0l15.7,8.9
				c1.2,0.7,1,1.7-0.3,2.4l-18.4,8.9C372.5,538.9,370.4,538.9,369.3,538.2z"/>
			<path class="st5" d="M393.4,552l-15.9-9c-1.2-0.7-1-1.7,0.4-2.4l18.4-9c1.4-0.7,3.4-0.7,4.6,0l15.9,9c1.2,0.7,1,1.7-0.3,2.4
				l-18.4,9C396.6,552.7,394.6,552.7,393.4,552z"/>
			<path class="st5" d="M417.7,565.9l-16-9.1c-1.2-0.7-1-1.8,0.3-2.4l18.5-9.1c1.4-0.7,3.4-0.7,4.6,0l16.1,9.1
				c1.2,0.7,1.1,1.8-0.3,2.4l-18.5,9.1C421,566.5,418.9,566.5,417.7,565.9z"/>
			<path class="st5" d="M442.4,579.9l-16.2-9.2c-1.2-0.7-1-1.8,0.3-2.5l18.5-9.2c1.4-0.7,3.4-0.7,4.6,0l16.2,9.2
				c1.2,0.7,1.1,1.8-0.3,2.5l-18.5,9.2C445.7,580.6,443.6,580.6,442.4,579.9z"/>
			<path class="st5" d="M467.3,594.1l-16.4-9.3c-1.2-0.7-1.1-1.8,0.3-2.5l18.5-9.3c1.4-0.7,3.4-0.7,4.6,0l16.4,9.3
				c1.2,0.7,1.1,1.8-0.3,2.5l-18.5,9.3C470.6,594.8,468.5,594.8,467.3,594.1z"/>
			<path class="st5" d="M492.5,608.5l-16.6-9.5c-1.2-0.7-1.1-1.8,0.3-2.5l18.5-9.4c1.4-0.7,3.5-0.7,4.7,0l16.6,9.4
				c1.2,0.7,1.1,1.8-0.2,2.5l-18.5,9.5C495.8,609.2,493.7,609.2,492.5,608.5z"/>
			<path class="st5" d="M517.9,623l-16.8-9.6c-1.2-0.7-1.1-1.8,0.3-2.5l18.5-9.5c1.4-0.7,3.5-0.7,4.7,0l16.8,9.5
				c1.2,0.7,1.1,1.8-0.2,2.5l-18.5,9.6C521.3,623.7,519.2,623.7,517.9,623z"/>
			<path class="st5" d="M543.7,637.7l-17-9.7c-1.2-0.7-1.1-1.9,0.2-2.6l18.5-9.6c1.4-0.7,3.5-0.7,4.7,0l17,9.6
				c1.3,0.7,1.2,1.9-0.2,2.6l-18.5,9.7C547.1,638.4,545,638.4,543.7,637.7z"/>
			<path class="st5" d="M569.7,652.5l-17.2-9.8c-1.3-0.7-1.2-1.9,0.2-2.6l18.5-9.7c1.4-0.7,3.5-0.7,4.8,0l17.2,9.7
				c1.3,0.7,1.2,1.9-0.2,2.6l-18.5,9.8C573.2,653.2,571,653.2,569.7,652.5z"/>
			<path class="st5" d="M596.1,667.5l-17.4-9.9c-1.3-0.7-1.2-1.9,0.2-2.6l18.5-9.8c1.4-0.7,3.5-0.7,4.8,0l17.4,9.8
				c1.3,0.7,1.2,1.9-0.1,2.6l-18.5,9.9C599.5,668.2,597.4,668.2,596.1,667.5z"/>
			<path class="st5" d="M622.7,682.7l-17.6-10c-1.3-0.7-1.2-1.9,0.2-2.7l18.5-9.9c1.4-0.7,3.5-0.7,4.8,0l17.6,9.9
				c1.3,0.7,1.2,1.9-0.1,2.7l-18.5,10C626.2,683.4,624,683.4,622.7,682.7z"/>
			<path class="st5" d="M649.7,698.1l-17.8-10.1c-1.3-0.7-1.2-2,0.1-2.7l18.5-10c1.4-0.7,3.5-0.7,4.8,0l17.8,10
				c1.3,0.7,1.3,2-0.1,2.7l-18.5,10.1C653.2,698.8,651,698.8,649.7,698.1z"/>
			<path class="st5" d="M676.9,713.6l-18-10.2c-1.3-0.8-1.3-2,0.1-2.7l18.5-10.1c1.4-0.7,3.5-0.7,4.9,0l18,10.1
				c1.3,0.7,1.3,2-0.1,2.7l-18.5,10.2C680.5,714.4,678.3,714.4,676.9,713.6z"/>
			<path class="st5" d="M727.8,742.6L686.4,719c-1.3-0.8-1.3-2,0.1-2.8l18.5-10.3c1.4-0.8,3.6-0.8,4.9,0l41.4,23.4
				c1.4,0.8,1.4,2,0,2.8l-18.5,10.5C731.3,743.3,729.1,743.3,727.8,742.6z"/>
		</g>
		<g>
			<path class="st5" d="M339.6,610.5l-16-9.5c-1.2-0.7-1-1.8,0.4-2.5l19.1-9.4c1.4-0.7,3.5-0.7,4.7,0l16.1,9.4
				c1.2,0.7,1,1.8-0.4,2.5l-19.1,9.5C342.9,611.2,340.8,611.2,339.6,610.5z"/>
			<path class="st5" d="M365.2,625.6L349,616c-1.2-0.7-1-1.9,0.4-2.6l19.1-9.5c1.4-0.7,3.5-0.7,4.7,0l16.2,9.5
				c1.2,0.7,1,1.8-0.4,2.6l-19.1,9.6C368.6,626.3,366.4,626.3,365.2,625.6z"/>
			<path class="st5" d="M391.2,640.9l-16.4-9.7c-1.2-0.7-1-1.9,0.4-2.6l19.1-9.6c1.4-0.7,3.5-0.7,4.7,0l16.4,9.6
				c1.2,0.7,1.1,1.9-0.3,2.6l-19.1,9.7C394.5,641.6,392.4,641.6,391.2,640.9z"/>
			<path class="st5" d="M417.4,656.4l-16.6-9.8c-1.2-0.7-1.1-1.9,0.4-2.6l19.1-9.7c1.4-0.7,3.5-0.7,4.8,0l16.6,9.7
				c1.2,0.7,1.1,1.9-0.3,2.6l-19.1,9.8C420.8,657.1,418.7,657.1,417.4,656.4z"/>
			<path class="st5" d="M444,672.1l-16.8-9.9c-1.2-0.7-1.1-1.9,0.3-2.6l19.1-9.8c1.4-0.7,3.6-0.7,4.8,0l16.8,9.8
				c1.2,0.7,1.1,1.9-0.3,2.6l-19.1,9.9C447.4,672.8,445.2,672.8,444,672.1z"/>
			<path class="st5" d="M470.9,688l-17-10c-1.2-0.7-1.1-1.9,0.3-2.7l19.1-9.9c1.4-0.7,3.6-0.7,4.8,0l17,9.9c1.3,0.7,1.1,1.9-0.3,2.7
				l-19.1,10C474.3,688.7,472.1,688.7,470.9,688z"/>
			<path class="st5" d="M498.1,704l-17.2-10.2c-1.3-0.7-1.1-2,0.3-2.7l19.1-10.1c1.4-0.7,3.6-0.7,4.8,0l17.2,10.1
				c1.3,0.7,1.2,2-0.2,2.7L503,704C501.6,704.8,499.4,704.8,498.1,704z"/>
			<path class="st5" d="M525.6,720.3L508.2,710c-1.3-0.8-1.2-2,0.3-2.7l19.2-10.2c1.4-0.7,3.6-0.7,4.9,0l17.4,10.2
				c1.3,0.8,1.2,2-0.2,2.7l-19.2,10.3C529.1,721,526.9,721,525.6,720.3z"/>
			<path class="st5" d="M553.5,736.7l-17.6-10.4c-1.3-0.8-1.2-2,0.2-2.8l19.2-10.3c1.4-0.8,3.6-0.8,4.9,0l17.6,10.3
				c1.3,0.8,1.2,2-0.2,2.8l-19.2,10.4C557,737.5,554.8,737.5,553.5,736.7z"/>
			<path class="st5" d="M581.7,753.4l-17.9-10.5c-1.3-0.8-1.2-2,0.2-2.8l19.2-10.4c1.4-0.8,3.6-0.8,4.9,0L606,740
				c1.3,0.8,1.3,2-0.2,2.8l-19.2,10.5C585.3,754.2,583,754.2,581.7,753.4z"/>
			<path class="st5" d="M643.6,789.9l-52-30.7c-1.3-0.8-1.2-2.1,0.2-2.8l19.2-10.6c1.4-0.8,3.6-0.8,5,0l52.1,30.4
				c1.4,0.8,1.3,2.1-0.1,2.9l-19.2,10.8C647.3,790.7,645,790.7,643.6,789.9z"/>
			<path class="st5" d="M315.2,596.1l-45.1-26.6c-1.1-0.7-0.9-1.8,0.5-2.5l19-9.2c1.4-0.7,3.5-0.7,4.6,0l45.1,26.4
				c1.2,0.7,1,1.8-0.4,2.5l-19.1,9.4C318.5,596.8,316.4,596.8,315.2,596.1z"/>
		</g>
		<g>
			<path class="st5" d="M378,572.5l-15.9-9.2c-1.2-0.7-1-1.8,0.4-2.4l18.6-9.1c1.4-0.7,3.4-0.7,4.6,0l16,9.1c1.2,0.7,1,1.8-0.3,2.4
				l-18.7,9.2C381.2,573.2,379.1,573.2,378,572.5z"/>
			<path class="st5" d="M403.1,587l-16.1-9.3c-1.2-0.7-1-1.8,0.4-2.5L406,566c1.4-0.7,3.5-0.7,4.6,0l16.1,9.2c1.2,0.7,1,1.8-0.3,2.5
				l-18.7,9.3C406.4,587.7,404.3,587.7,403.1,587z"/>
			<path class="st5" d="M428.6,601.7l-16.3-9.4c-1.2-0.7-1-1.8,0.3-2.5l18.7-9.3c1.4-0.7,3.5-0.7,4.7,0l16.3,9.3
				c1.2,0.7,1.1,1.8-0.3,2.5l-18.7,9.4C431.9,602.4,429.8,602.4,428.6,601.7z"/>
			<path class="st5" d="M454.3,616.5l-16.5-9.5c-1.2-0.7-1.1-1.8,0.3-2.5l18.7-9.4c1.4-0.7,3.5-0.7,4.7,0l16.5,9.4
				c1.2,0.7,1.1,1.8-0.3,2.5l-18.7,9.5C457.7,617.2,455.5,617.2,454.3,616.5z"/>
			<path class="st5" d="M480.4,631.5l-16.7-9.6c-1.2-0.7-1.1-1.9,0.3-2.6l18.7-9.5c1.4-0.7,3.5-0.7,4.7,0l16.7,9.5
				c1.2,0.7,1.1,1.9-0.2,2.6l-18.7,9.6C483.7,632.2,481.6,632.2,480.4,631.5z"/>
			<path class="st5" d="M506.7,646.7l-16.9-9.7c-1.2-0.7-1.1-1.9,0.3-2.6l18.7-9.6c1.4-0.7,3.5-0.7,4.7,0l16.9,9.6
				c1.2,0.7,1.1,1.9-0.2,2.6l-18.7,9.7C510.1,647.4,508,647.4,506.7,646.7z"/>
			<path class="st5" d="M533.4,662.1l-17.1-9.8c-1.3-0.7-1.1-1.9,0.2-2.6l18.7-9.8c1.4-0.7,3.5-0.7,4.8,0l17.1,9.8
				c1.3,0.7,1.2,1.9-0.2,2.6l-18.7,9.8C536.8,662.8,534.6,662.8,533.4,662.1z"/>
			<path class="st5" d="M560.3,677.6l-17.3-10c-1.3-0.7-1.2-1.9,0.2-2.7l18.7-9.9c1.4-0.7,3.5-0.7,4.8,0l17.3,9.9
				c1.3,0.7,1.2,1.9-0.2,2.7l-18.7,10C563.8,678.4,561.6,678.4,560.3,677.6z"/>
			<path class="st5" d="M587.6,693.3l-17.5-10.1c-1.3-0.7-1.2-1.9,0.2-2.7l18.7-10c1.4-0.7,3.5-0.7,4.8,0l17.5,10
				c1.3,0.7,1.2,1.9-0.1,2.7l-18.7,10.1C591.1,694.1,588.9,694.1,587.6,693.3z"/>
			<path class="st5" d="M615.2,709.3l-17.7-10.2c-1.3-0.7-1.2-2,0.2-2.7l18.7-10.1c1.4-0.7,3.6-0.7,4.9,0l17.7,10.1
				c1.3,0.7,1.3,2-0.1,2.7l-18.7,10.2C618.7,710,616.5,710,615.2,709.3z"/>
			<path class="st5" d="M643.2,725.4L625.2,715c-1.3-0.8-1.3-2,0.1-2.7l18.7-10.2c1.4-0.7,3.6-0.7,4.9,0l17.9,10.2
				c1.3,0.8,1.3,2-0.1,2.7l-18.8,10.3C646.7,726.1,644.5,726.1,643.2,725.4z"/>
			<path class="st5" d="M671.4,741.7l-18.1-10.4c-1.3-0.8-1.3-2,0.1-2.8l18.8-10.3c1.4-0.8,3.6-0.8,4.9,0l18.1,10.3
				c1.3,0.8,1.3,2-0.1,2.8l-18.8,10.4C675,742.4,672.8,742.4,671.4,741.7z"/>
			<path class="st5" d="M700,758.2l-18.3-10.6c-1.3-0.8-1.3-2,0.1-2.8l18.8-10.5c1.4-0.8,3.6-0.8,4.9,0l18.3,10.5
				c1.4,0.8,1.3,2,0,2.8L705,758.2C703.6,758.9,701.4,758.9,700,758.2z"/>
			<path class="st5" d="M354.7,559l-28.6-16.5c-1.2-0.7-1-1.7,0.4-2.4l18.6-9c1.4-0.7,3.4-0.7,4.6,0l28.6,16.3
				c1.2,0.7,1,1.8-0.4,2.4l-18.6,9.1C357.9,559.7,355.8,559.7,354.7,559z"/>
		</g>
		<g>
			<path class="st5" d="M293.7,615.9l-15.9-9.5c-1.2-0.7-1-1.8,0.5-2.5l19.3-9.4c1.4-0.7,3.5-0.7,4.7,0l15.9,9.4
				c1.2,0.7,1,1.8-0.4,2.5l-19.3,9.5C297,616.6,294.9,616.6,293.7,615.9z"/>
			<path class="st5" d="M528.4,756.2l-15.2-9.1c-1.3-0.8-1.2-2,0.3-2.8l19.4-10.5c1.4-0.8,3.6-0.8,4.9,0l15.2,9
				c1.3,0.8,1.2,2-0.2,2.8l-19.4,10.6C531.9,757,529.7,757,528.4,756.2z"/>
			<path class="st5" d="M550.9,780.8l-20.4-12.3c-1.3-0.8-1.2-2.1,0.2-2.9l10.2-5.6c1.4-0.8,3.7-0.8,5,0l20.4,12.2
				c1.3,0.8,1.2,2.1-0.2,2.9l-10.2,5.6C554.5,781.6,552.2,781.6,550.9,780.8z"/>
			<path class="st5" d="M606.2,814l-20.9-12.6c-1.3-0.8-1.3-2.1,0.2-2.9l10.2-5.7c1.4-0.8,3.7-0.8,5,0l20.9,12.5
				c1.4,0.8,1.3,2.1-0.1,2.9l-10.2,5.7C609.9,814.8,607.6,814.8,606.2,814z"/>
			<path class="st5" d="M578.4,797.3l-20.7-12.4c-1.3-0.8-1.2-2.1,0.2-2.9l10.2-5.6c1.4-0.8,3.7-0.8,5,0l20.7,12.3
				c1.3,0.8,1.3,2.1-0.2,2.9l-10.2,5.7C582,798.1,579.7,798.1,578.4,797.3z"/>
			<path class="st5" d="M597.1,786.9l-20.7-12.3c-1.3-0.8-1.2-2.1,0.2-2.9l10.1-5.6c1.4-0.8,3.7-0.8,5,0l20.7,12.2
				c1.3,0.8,1.3,2.1-0.2,2.9l-10.1,5.6C600.7,787.7,598.4,787.7,597.1,786.9z"/>
			<path class="st5" d="M268.7,601l-28.5-17c-1.1-0.7-0.9-1.8,0.5-2.5l19.2-9.3c1.4-0.7,3.5-0.7,4.6,0l28.5,16.9
				c1.2,0.7,1,1.8-0.5,2.5l-19.3,9.4C272,601.6,269.9,601.6,268.7,601z"/>
			<path class="st5" d="M334.1,640.1l-29.4-17.5c-1.2-0.7-1-1.9,0.4-2.6l19.3-9.5c1.4-0.7,3.5-0.7,4.7,0l29.4,17.4
				c1.2,0.7,1,1.9-0.4,2.6l-19.3,9.7C337.5,640.8,335.3,640.8,334.1,640.1z"/>
			<path class="st5" d="M504,741.6l-27.3-16.3c-1.3-0.8-1.1-2,0.3-2.8l19.4-10.3c1.4-0.8,3.6-0.8,4.9,0l27.3,16.1
				c1.3,0.8,1.2,2-0.2,2.8L509,741.6C507.6,742.4,505.3,742.4,504,741.6z"/>
			<path class="st5" d="M467.8,719.9l-122.8-73.4c-1.2-0.7-1-1.9,0.4-2.6l19.3-9.7c1.4-0.7,3.6-0.7,4.8,0l122.9,72.7
				c1.3,0.8,1.2,2-0.3,2.7l-19.4,10.3C471.2,720.7,469,720.7,467.8,719.9z"/>
		</g>
		<path class="st5" d="M352.1,808.4l-141-89.3c-1.2-0.8-0.9-2,0.6-2.8L313,665.3c1.4-0.7,3.6-0.7,4.8,0L459.4,751
			c1.3,0.8,1.1,2.1-0.3,2.8l-101.9,54.6C355.7,809.2,353.4,809.2,352.1,808.4z"/>
		<g>
			<path class="st5" d="M355.5,589.4l-16-9.3c-1.2-0.7-1-1.8,0.4-2.5l18.8-9.2c1.4-0.7,3.5-0.7,4.6,0l16,9.2c1.2,0.7,1,1.8-0.4,2.5
				l-18.9,9.3C358.8,590,356.7,590,355.5,589.4z"/>
			<path class="st5" d="M380.7,604.1l-16.2-9.4c-1.2-0.7-1-1.8,0.4-2.5l18.9-9.3c1.4-0.7,3.5-0.7,4.7,0l16.2,9.3
				c1.2,0.7,1,1.8-0.3,2.5l-18.9,9.4C384,604.8,381.9,604.8,380.7,604.1z"/>
			<path class="st5" d="M406.2,618.9l-16.3-9.5c-1.2-0.7-1-1.8,0.4-2.5l18.9-9.4c1.4-0.7,3.5-0.7,4.7,0l16.4,9.4
				c1.2,0.7,1.1,1.8-0.3,2.5l-18.9,9.5C409.6,619.6,407.4,619.6,406.2,618.9z"/>
			<path class="st5" d="M432,634l-16.5-9.6c-1.2-0.7-1.1-1.9,0.3-2.6l18.9-9.6c1.4-0.7,3.5-0.7,4.7,0l16.5,9.6
				c1.2,0.7,1.1,1.9-0.3,2.6l-18.9,9.6C435.4,634.7,433.2,634.7,432,634z"/>
			<path class="st5" d="M458.1,649.2l-16.7-9.8c-1.2-0.7-1.1-1.9,0.3-2.6l18.9-9.7c1.4-0.7,3.5-0.7,4.7,0l16.7,9.7
				c1.2,0.7,1.1,1.9-0.3,2.6l-18.9,9.8C461.5,649.9,459.3,649.9,458.1,649.2z"/>
			<path class="st5" d="M484.5,664.6l-16.9-9.9c-1.2-0.7-1.1-1.9,0.3-2.6l18.9-9.8c1.4-0.7,3.5-0.7,4.8,0l16.9,9.8
				c1.3,0.7,1.1,1.9-0.2,2.6l-18.9,9.9C487.9,665.3,485.7,665.3,484.5,664.6z"/>
			<path class="st5" d="M511.2,680.2l-17.1-10c-1.3-0.7-1.1-1.9,0.3-2.7l18.9-9.9c1.4-0.7,3.5-0.7,4.8,0l17.1,9.9
				c1.3,0.7,1.2,1.9-0.2,2.7l-18.9,10C514.6,680.9,512.4,680.9,511.2,680.2z"/>
			<path class="st5" d="M538.2,695.9l-17.3-10.1c-1.3-0.7-1.2-2,0.2-2.7l18.9-10c1.4-0.7,3.6-0.7,4.8,0l17.3,10
				c1.3,0.7,1.2,2-0.2,2.7l-18.9,10.1C541.7,696.7,539.5,696.7,538.2,695.9z"/>
			<path class="st5" d="M565.5,711.9L548,701.6c-1.3-0.7-1.2-2,0.2-2.7l18.9-10.1c1.4-0.7,3.6-0.7,4.9,0l17.5,10.1
				c1.3,0.7,1.2,2-0.2,2.7l-19,10.2C569,712.6,566.8,712.6,565.5,711.9z"/>
			<path class="st5" d="M593.2,728l-17.7-10.3c-1.3-0.8-1.2-2,0.2-2.8l19-10.2c1.4-0.8,3.6-0.8,4.9,0l17.7,10.2
				c1.3,0.8,1.2,2-0.1,2.8l-19,10.3C596.7,728.8,594.5,728.8,593.2,728z"/>
			<path class="st5" d="M621.2,744.3l-17.9-10.5c-1.3-0.8-1.2-2,0.2-2.8l19-10.4c1.4-0.8,3.6-0.8,4.9,0l18,10.4
				c1.3,0.8,1.3,2-0.1,2.8l-19,10.5C624.8,745.1,622.5,745.1,621.2,744.3z"/>
			<path class="st5" d="M672,774l-41.4-24.1c-1.3-0.8-1.3-2,0.1-2.8l19-10.5c1.4-0.8,3.6-0.8,4.9,0l41.4,23.9
				c1.4,0.8,1.3,2.1-0.1,2.8L677,774C675.6,774.7,673.4,774.7,672,774z"/>
			<path class="st5" d="M331.3,575.2l-33-19.3c-1.1-0.7-1-1.8,0.4-2.4l18.8-9.1c1.4-0.7,3.4-0.7,4.6,0l33,19.1
				c1.2,0.7,1,1.8-0.4,2.5l-18.8,9.2C334.5,575.9,332.4,575.9,331.3,575.2z"/>
		</g>
	</g>
</g>
<g>
	<path class="st6" d="M781.4,699.7L372.1,473.4c-5.4-3-9.8-12.2-9.8-20.6v-358c0-8.4,4.4-13.2,9.8-10.7l409.3,187
		c6.6,3,12,13,12,22.3v396.2C793.4,698.8,788,703.3,781.4,699.7z"/>
	<path class="st7" d="M390.9,120.9c0,6.5-3.5,10.2-7.7,8.3c-4.2-2-7.7-8.9-7.7-15.4s3.4-10.2,7.7-8.3
		C387.4,107.4,390.9,114.3,390.9,120.9z"/>
	<path class="st8" d="M410.9,130.2c0,6.6-3.5,10.3-7.8,8.3c-4.3-2-7.8-8.9-7.8-15.5s3.5-10.3,7.8-8.3
		C407.4,116.6,410.9,123.6,410.9,130.2z"/>
	<path class="st9" d="M431.2,139.5c0,6.6-3.5,10.3-7.9,8.3c-4.3-2-7.8-9-7.8-15.6c0-6.6,3.5-10.3,7.8-8.3
		C427.6,125.9,431.2,132.9,431.2,139.5z"/>
</g>
<g>
	<path class="st3" d="M160,378.5L56.4,319.7c-8.9-5-16.1,2.8-16.1,17.3v80.8c0,14.5,7.2,30.8,16.1,36.1l67.6,40.5l30.1,66.8v-48.8
		l5.9,3.5c9.3,5.6,17-2.1,17-17.1v-83.5C177,400.4,169.3,383.7,160,378.5z"/>
	<path class="st1" d="M144.7,395.2L41.1,336.5c-8.9-5-16.1,2.8-16.1,17.3v80.8c0,14.5,7.2,30.8,16.1,36.1l67.6,40.5l30.1,66.8v-48.8
		l5.9,3.5c9.3,5.6,17-2.1,17-17.1v-83.5C161.7,417.1,154,400.5,144.7,395.2z"/>
	<path class="st0" d="M117.9,436.8l-6.1-3.5c-0.3-1.8-0.7-3.7-1.2-5.5l4.3-4.5c1-1,1-3.6,0-5.8l-5.5-12.2c-1-2.1-2.6-3.1-3.6-2
		l-4.3,4.5c-0.9-1.3-1.9-2.5-2.9-3.6v-9.8c0-2.2-1.1-4.7-2.5-5.5l-7.8-4.4c-1.4-0.8-2.5,0.4-2.5,2.6v9.7c-1,0-2,0.1-2.9,0.3
		l-4.2-9.3c-1-2.1-2.5-3-3.5-2l-5.4,5.8c-1,1-1,3.6,0,5.7l4.2,9.3c-0.5,1.2-0.9,2.6-1.2,4l-5.9-3.4c-1.4-0.8-2.5,0.4-2.5,2.6v12.5
		c0,2.2,1.1,4.7,2.5,5.5l5.9,3.5c0.3,1.8,0.7,3.6,1.2,5.4l-4.2,4.4c-1,1-1,3.6,0,5.7l5.4,12.1c1,2.1,2.5,3.1,3.5,2.1l4.2-4.4
		c0.9,1.3,1.9,2.5,2.9,3.7v9.7c0,2.2,1.1,4.7,2.5,5.5l7.8,4.6c1.4,0.8,2.5-0.3,2.5-2.6v-9.8c1,0.1,2,0,2.9-0.2l4.3,9.4
		c1,2.2,2.6,3.1,3.6,2.1l5.5-5.7c1-1,1-3.6,0-5.8l-4.3-9.5c0.5-1.2,0.9-2.6,1.2-4l6.1,3.6c1.4,0.8,2.5-0.4,2.5-2.6v-12.7
		C120.5,440.1,119.3,437.6,117.9,436.8z M91.8,451c-6.7-3.9-12-15.8-12-26.6s5.4-16.4,12-12.6c6.7,3.9,12.1,15.8,12.1,26.7
		C103.9,449.3,98.5,454.9,91.8,451z"/>
</g>
<g>
	<path class="st5" d="M486.7,270.8l47.2-7.3v18.2l-34.9,3.9v0.3l34.9,40.8v18.2l-47.2-57.2V270.8z"/>
	<path class="st5" d="M540.8,373.7l21.5-122.2l11.8,6.1L552.5,380L540.8,373.7z"/>
	<path class="st5" d="M630.2,363.8l-49.2,6.4v-18.4l36.2-3.5V348L581,306.2v-18.4l49.2,58.4V363.8z"/>
</g>
<g>
	<path class="st6" d="M818.2,438.3c-31.2,28-80.8,3.4-110.9-53.9c-29.7-56.5-29.7-124.8,0-153.5c30.1-29.1,79.7-7.1,110.9,50.1
		C849.8,339,849.8,409.9,818.2,438.3z"/>
	<path class="st3" d="M949.9,656.5L841.8,455.1c-0.5-0.9-1.1-1.8-1.7-2.5c29.7-39.6,26.7-118.3-9-183.6
		c-38.4-70.2-99.3-96.7-136.1-60.9c-36.2,35.2-36.2,118.6,0,187.7c33.6,64.3,87.4,95.2,125.7,73.9c0.3,1,0.7,1.9,1.2,2.9l107.2,201
		c2.6,4.9,6.9,7.2,9.6,5l11.2-9.2C952.6,667.3,952.6,661.4,949.9,656.5z M707.3,384.5c-29.7-56.5-29.7-124.8,0-153.5
		c30.1-29.1,79.7-7.1,110.9,50.1c31.6,58,31.6,128.9,0,157.3C787,466.3,737.4,441.7,707.3,384.5z"/>
</g>
<g>
	<g>
		<path class="st5" d="M448.7,422.1c0-2.9,0.4-5.4,1.1-7.5c0.7-2.1,1.7-3.8,3-5c1.3-1.2,2.8-1.9,4.4-2.1c1.7-0.2,3.5,0.2,5.5,1.2
			c2.1,1.1,4,2.6,5.7,4.7c1.7,2,3.2,4.4,4.5,7.2c1.3,2.8,2.3,5.9,3,9.3c0.7,3.4,1.1,7.1,1.1,10.9c0,6.4-0.4,11.7-1.1,15.9
			c-0.7,4.3-1.7,7.6-3,10c-1.3,2.4-2.8,3.8-4.6,4.4c-1.8,0.5-3.8,0.2-5.9-0.9c-2.7-1.4-5.1-3.7-7.2-6.9c-2.1-3.2-3.6-6.9-4.6-11
			l2-1.3c0.8,3.4,2,6.6,3.8,9.4c1.8,2.8,3.8,4.8,6,6c1.8,0.9,3.4,1.1,4.8,0.6c1.5-0.5,2.7-1.7,3.7-3.7c1-1.9,1.8-4.5,2.4-7.8
			c0.6-3.3,0.9-7.2,0.9-11.8c-0.4,1.6-1,2.9-1.8,4c-0.8,1.1-1.7,1.9-2.7,2.4c-1,0.5-2.2,0.8-3.4,0.7c-1.2-0.1-2.5-0.4-3.9-1.2
			c-1.9-1-3.7-2.5-5.4-4.4c-1.7-1.9-3.1-4.2-4.3-6.7c-1.2-2.5-2.2-5.2-2.9-8.1C449,427.7,448.7,424.9,448.7,422.1z M462.6,412.5
			c-1.5-0.8-3-1.1-4.4-1c-1.4,0.2-2.6,0.7-3.6,1.7c-1,1-1.8,2.4-2.4,4.1c-0.6,1.7-0.9,3.7-0.9,6.1c0,2.3,0.3,4.6,0.9,7
			c0.6,2.3,1.4,4.5,2.4,6.6c1,2.1,2.2,3.9,3.6,5.5c1.4,1.6,2.8,2.8,4.4,3.6c1.5,0.8,3,1.1,4.4,0.9c1.4-0.2,2.6-0.8,3.6-1.8
			c1-1,1.8-2.4,2.4-4.1c0.6-1.7,0.9-3.7,0.9-6.1c0-2.3-0.3-4.6-0.9-6.9c-0.6-2.4-1.4-4.6-2.4-6.6c-1-2.1-2.2-3.9-3.6-5.5
			C465.6,414.5,464.2,413.3,462.6,412.5z"/>
		<path class="st5" d="M483.3,446.8v-3.9l16.4,8.5v3.9L483.3,446.8z"/>
		<path class="st5" d="M524.5,485.7v3.9l-18.3-9.6v-3.9l8.1,4.3v-39.5c-0.3,0.5-0.9,1-1.6,1.4c-0.7,0.4-1.5,0.8-2.5,1
			c-0.9,0.2-1.9,0.4-2.8,0.3c-1,0-1.8-0.2-2.6-0.6v-4.3c1,0.5,2,0.6,3,0.4c1.1-0.2,2.1-0.6,3-1c0.9-0.5,1.7-1,2.3-1.6
			c0.6-0.6,1-0.9,1.1-1l2.9,1.5v44.9L524.5,485.7z"/>
		<path class="st5" d="M557.8,481.9c0,3.8-0.4,7.1-1.1,9.9c-0.7,2.8-1.7,5-3,6.7c-1.3,1.6-2.8,2.6-4.6,3c-1.8,0.4-3.7,0-5.8-1.1
			c-2.1-1.1-4-2.7-5.7-5c-1.8-2.2-3.3-4.8-4.5-7.8c-1.3-3-2.3-6.2-3-9.8c-0.7-3.5-1.1-7.2-1.1-11c0-3.8,0.4-7.1,1.1-9.9
			c0.7-2.8,1.7-5,3-6.7c1.3-1.7,2.8-2.7,4.5-3.1c1.8-0.4,3.7-0.1,5.7,1c2.1,1.1,4,2.7,5.8,5c1.8,2.2,3.3,4.8,4.6,7.8
			c1.3,3,2.3,6.3,3,9.8C557.4,474.4,557.8,478.1,557.8,481.9z M554.8,480.3c0-3.3-0.3-6.4-0.8-9.4c-0.6-3-1.3-5.7-2.3-8.2
			c-1-2.4-2.2-4.6-3.6-6.4c-1.4-1.8-3-3.2-4.7-4c-1.7-0.9-3.2-1.1-4.7-0.8c-1.4,0.4-2.6,1.2-3.6,2.6c-1,1.4-1.8,3.3-2.3,5.7
			c-0.6,2.4-0.8,5.3-0.8,8.5c0,3.3,0.3,6.4,0.8,9.4c0.6,3,1.3,5.7,2.3,8.2c1,2.5,2.2,4.6,3.6,6.4c1.4,1.8,3,3.1,4.7,4
			c1.7,0.9,3.2,1.2,4.7,0.9c1.4-0.3,2.6-1.2,3.6-2.6c1-1.4,1.8-3.3,2.3-5.7C554.5,486.5,554.8,483.6,554.8,480.3z"/>
		<path class="st5" d="M625.6,542.7l-3-1.6V516c0-5.7-0.6-10.3-1.8-13.6c-1.2-3.3-3-5.7-5.5-7c-1.3-0.7-2.5-0.9-3.6-0.8
			c-1.1,0.1-2.2,0.5-3.1,1.3c-0.9,0.8-1.8,1.8-2.4,3.2c-0.7,1.3-1.2,3-1.6,4.8v27.8l-2.9-1.5V505c0-5.8-0.6-10.3-1.8-13.6
			c-1.2-3.3-3-5.6-5.5-6.9c-1.3-0.7-2.4-0.9-3.6-0.8c-1.1,0.1-2.1,0.5-3.1,1.3c-0.9,0.8-1.8,1.8-2.5,3.1c-0.7,1.3-1.3,2.9-1.7,4.8
			v27.8l-2.9-1.5v-44.9l2.7,1.4v10.7c1.2-3,2.9-5,4.9-5.9c2-1,4.3-0.8,6.7,0.5c2.6,1.3,4.7,3.6,6.3,6.6c1.6,3.1,2.6,6.5,2.9,10.3
			c2.9-6.6,6.9-8.6,12-6c3.4,1.7,5.7,4.7,7.2,9c1.4,4.3,2.2,9.5,2.2,15.9V542.7z"/>
		<path class="st5" d="M642.1,552.3c-1.4-0.8-2.8-1.8-4-3.2c-1.2-1.4-2.3-2.9-3.2-4.7c-0.9-1.7-1.7-3.6-2.2-5.6
			c-0.5-2-0.8-4-0.8-5.9c0-2,0.3-3.6,1-4.9c0.6-1.3,1.5-2.2,2.6-2.8c1.1-0.6,2.5-0.8,4.1-0.7c1.6,0.2,3.3,0.7,5.2,1.7
			c1.7,0.9,3.3,2,5,3.3c1.7,1.3,3.2,2.7,4.6,4.2v-4.5c0-4.3-0.8-8.2-2.5-11.6c-1.7-3.4-3.9-5.8-6.8-7.3c-1.5-0.8-3.1-1.1-4.8-1.1
			c-1.7,0.1-3.4,0.5-5.1,1.3l-1.1-3.5c4-1.9,7.7-1.9,11.3-0.1c3.7,1.9,6.7,5.1,8.8,9.3c2.2,4.3,3.2,9.2,3.2,14.8v22.2
			c0,1.5,0.4,2.4,1.3,2.9v3.9c-0.2,0-0.4-0.1-0.6-0.2c-0.2-0.1-0.4-0.2-0.6-0.3c-0.8-0.4-1.4-1.1-1.9-2.2c-0.5-1-0.8-2.1-0.8-3.3
			v-3.8c-1.4,2-3.3,3.1-5.5,3.4C647.1,554.2,644.7,553.7,642.1,552.3z M642.7,549.1c2.3,1.2,4.4,1.7,6.3,1.4
			c1.9-0.3,3.4-1.2,4.4-2.7c0.6-0.9,1-1.9,1-3v-8c-1.4-1.6-2.9-3-4.5-4.2c-1.6-1.2-3.2-2.3-4.8-3.1c-1.5-0.8-3-1.3-4.2-1.5
			c-1.3-0.2-2.4-0.1-3.3,0.3c-0.9,0.4-1.6,1.1-2.1,2.1c-0.5,1-0.7,2.2-0.7,3.7c0,1.5,0.2,3,0.6,4.6c0.4,1.5,1,3,1.7,4.3
			c0.7,1.3,1.6,2.5,2.5,3.6C640.6,547.7,641.6,548.6,642.7,549.1z"/>
		<path class="st5" d="M681.4,530.4c-2.8-1.3-5.3-1.4-7.4-0.2c-2.1,1.2-3.6,3.6-4.4,7.2v28.5l-3-1.6v-45.5l2.9,1.5v11.2
			c1.1-2.6,2.5-4.5,4.3-5.6c1.8-1.1,3.7-1.2,5.7-0.5c0.4,0.1,0.8,0.3,1.1,0.5c0.3,0.2,0.6,0.3,0.8,0.4V530.4z"/>
		<path class="st5" d="M701.1,580.2c-0.2,0-0.4,0.1-0.8,0.2c-0.4,0.1-0.9,0.2-1.5,0.2c-0.6,0-1.2-0.1-2-0.2
			c-0.7-0.1-1.5-0.4-2.4-0.9c-0.8-0.4-1.6-1-2.4-1.8c-0.7-0.7-1.4-1.6-2-2.6c-0.6-1-1-2.1-1.3-3.2c-0.3-1.2-0.5-2.4-0.5-3.8v-34.4
			l-4.4-2.3v-3.6l4.4,2.3v-15.6l3,1.6v15.6l7.3,3.8v3.6l-7.3-3.8v33.4c0,1.7,0.4,3.2,1.2,4.5c0.8,1.3,1.7,2.2,2.7,2.7
			c1.3,0.7,2.3,0.9,3.2,0.8c0.9-0.1,1.5-0.2,1.7-0.3L701.1,580.2z"/>
		<path class="st5" d="M706.5,529.1V521l3,1.6v8.1L706.5,529.1z M706.5,585.2v-45.8l3,1.6v45.8L706.5,585.2z"/>
		<path class="st5" d="M732.6,599.8c-2.2-1.2-4.3-2.9-6.2-5.2c-1.9-2.3-3.6-4.9-5-7.8c-1.4-2.9-2.5-6.1-3.3-9.4
			c-0.8-3.3-1.2-6.6-1.2-9.9c0-3.2,0.4-6.1,1.2-8.5c0.8-2.4,1.9-4.4,3.3-5.8c1.4-1.4,3-2.3,4.9-2.5c1.9-0.3,3.9,0.2,6.1,1.3
			c2.2,1.2,4.3,2.9,6.2,5.1c1.9,2.3,3.6,4.8,5,7.7c1.4,2.9,2.5,5.9,3.3,9.2c0.8,3.3,1.2,6.5,1.2,9.7c0,0.3,0,0.7,0,1.1
			c0,0.4,0,0.7-0.1,0.8L720,571.2c0.1,2.7,0.5,5.4,1.3,8c0.7,2.6,1.7,5.1,2.8,7.3c1.1,2.2,2.4,4.2,3.9,5.9c1.5,1.7,3,3,4.7,3.9
			c1.1,0.6,2.2,0.9,3.2,1c1.1,0.1,2.1,0,3-0.3c0.9-0.3,1.7-0.8,2.5-1.5c0.7-0.7,1.3-1.6,1.7-2.7l2.7,2.5c-0.5,1.4-1.1,2.6-2,3.5
			c-0.9,0.9-1.9,1.6-3.1,2c-1.2,0.4-2.4,0.5-3.8,0.3C735.4,601,734,600.6,732.6,599.8z M745,580.7c-0.1-2.8-0.5-5.5-1.3-8.1
			c-0.7-2.6-1.6-5-2.8-7.2c-1.1-2.2-2.4-4.1-3.9-5.8c-1.5-1.7-3-2.9-4.7-3.8c-1.7-0.9-3.2-1.2-4.7-1.1c-1.5,0.2-2.8,0.7-3.9,1.8
			c-1.1,1-2,2.5-2.7,4.4c-0.7,1.9-1.1,4.2-1.2,6.7L745,580.7z"/>
	</g>
</g>
</svg>
