<?xml version="1.0" encoding="utf-8"?>
<!-- Generator: Adobe Illustrator 19.1.0, SVG Export Plug-In . SVG Version: 6.00 Build 0)  -->
<svg version="1.1" xmlns="http://www.w3.org/2000/svg" xmlns:xlink="http://www.w3.org/1999/xlink" x="0px" y="0px"
	 viewBox="0 0 283.5 111.2" style="enable-background:new 0 0 283.5 111.2;" xml:space="preserve">
<style type="text/css">
	.st0{fill:none;}
	.st1{fill:#003B7E;}
	.st2{fill:#F9AE00;}
</style>
<g id="Clear_Space">
	<g>
		<g>
			<path class="st0" d="M70.4-22.6c0-0.1-0.1-0.2-0.2-0.3c-0.1-0.1-0.2-0.1-0.3,0l-11.8,7.2l-11.8-7.2c-0.1-0.1-0.2-0.1-0.3,0
				c-0.1,0.1-0.2,0.2-0.2,0.3V0.1c0,0.2,0.1,0.3,0.3,0.3H52c0.2,0,0.3-0.1,0.3-0.3v-12.5L57.9-9c0.1,0,0.2,0.1,0.3,0.1
				c0.1,0,0.2-0.1,0.3-0.1c0,0,11.7-7,11.8-7.1c0.1-0.1,0.1-0.2,0.1-0.4C70.4-16.5,70.4-22.6,70.4-22.6z"/>
			<path class="st0" d="M70.3-13.5c-0.1-0.1-0.2-0.1-0.3,0l-5.7,3.4c-0.1,0.1-0.2,0.2-0.2,0.4v9.8c0,0.2,0.1,0.3,0.3,0.3h5.8
				c0.2,0,0.3-0.1,0.3-0.3v-13.4C70.4-13.4,70.4-13.5,70.3-13.5"/>
		</g>
		<g>
			<path class="st0" d="M-23,7.7c-0.1,0-0.2,0.1-0.3,0.2c-0.1,0.1-0.1,0.2,0,0.3l7.2,11.8l-7.2,11.8c-0.1,0.1-0.1,0.2,0,0.3
				c0.1,0.1,0.2,0.2,0.3,0.2h22.7c0.2,0,0.3-0.1,0.3-0.3v-5.8c0-0.2-0.1-0.3-0.3-0.3h-12.5l3.4-5.6c0-0.1,0.1-0.2,0.1-0.3
				c0-0.1-0.1-0.2-0.1-0.3c0,0-7-11.7-7.1-11.8c-0.1-0.1-0.2-0.1-0.4-0.1C-16.9,7.7-23,7.7-23,7.7z"/>
			<path class="st0" d="M-13.9,7.8C-14,7.9-14,8-13.9,8.1l3.4,5.7c0.1,0.1,0.2,0.2,0.4,0.2h9.8c0.2,0,0.3-0.1,0.3-0.3V8
				c0-0.2-0.1-0.3-0.3-0.3h-13.4C-13.8,7.7-13.9,7.7-13.9,7.8"/>
		</g>
		<g>
			<path class="st0" d="M306.4,43.4c0.1,0,0.2-0.1,0.3-0.2c0.1-0.1,0.1-0.2,0-0.3l-7.2-11.8l7.2-11.8c0.1-0.1,0.1-0.2,0-0.3
				c-0.1-0.1-0.2-0.2-0.3-0.2h-22.7c-0.2,0-0.3,0.1-0.3,0.3v5.8c0,0.2,0.1,0.3,0.3,0.3h12.5l-3.4,5.6c0,0.1-0.1,0.2-0.1,0.3
				c0,0.1,0.1,0.2,0.1,0.3c0,0,7,11.7,7.1,11.8c0.1,0.1,0.2,0.1,0.4,0.1C300.4,43.4,306.4,43.4,306.4,43.4z"/>
			<path class="st0" d="M297.4,43.2c0.1-0.1,0.1-0.2,0-0.3l-3.4-5.7c-0.1-0.1-0.2-0.2-0.4-0.2h-9.8c-0.2,0-0.3,0.1-0.3,0.3v5.8
				c0,0.2,0.1,0.3,0.3,0.3h13.4C297.2,43.4,297.3,43.3,297.4,43.2"/>
		</g>
		<g>
			<path class="st0" d="M260,48.1c0-0.1-0.1-0.2-0.2-0.3c-0.1-0.1-0.2-0.1-0.3,0L247.7,55L236,47.9c-0.1-0.1-0.2-0.1-0.3,0
				c-0.1,0.1-0.2,0.2-0.2,0.3v22.7c0,0.2,0.1,0.3,0.3,0.3h5.8c0.2,0,0.3-0.1,0.3-0.3V58.3l5.6,3.4c0.1,0,0.2,0.1,0.3,0.1
				c0.1,0,0.2-0.1,0.3-0.1c0,0,11.7-7,11.8-7.1c0.1-0.1,0.1-0.2,0.1-0.4C260,54.2,260,48.1,260,48.1z"/>
			<path class="st0" d="M259.8,57.2c-0.1-0.1-0.2-0.1-0.3,0l-5.7,3.4c-0.1,0.1-0.2,0.2-0.2,0.4v9.8c0,0.2,0.1,0.3,0.3,0.3h5.8
				c0.2,0,0.3-0.1,0.3-0.3V57.4C260,57.3,259.9,57.2,259.8,57.2"/>
		</g>
		<g>
			<path class="st0" d="M216.5,111c0-0.1-0.1-0.2-0.2-0.3c-0.1-0.1-0.2-0.1-0.3,0l-11.8,7.2l-11.8-7.2c-0.1-0.1-0.2-0.1-0.3,0
				c-0.1,0.1-0.2,0.2-0.2,0.3v22.7c0,0.2,0.1,0.3,0.3,0.3h5.8c0.2,0,0.3-0.1,0.3-0.3v-12.5l5.6,3.4c0.1,0,0.2,0.1,0.3,0.1
				c0.1,0,0.2-0.1,0.3-0.1c0,0,11.7-7,11.8-7.1c0.1-0.1,0.1-0.2,0.1-0.4C216.5,117,216.5,111,216.5,111z"/>
			<path class="st0" d="M216.3,120c-0.1-0.1-0.2-0.1-0.3,0l-5.7,3.4c-0.1,0.1-0.2,0.2-0.2,0.4v9.8c0,0.2,0.1,0.3,0.3,0.3h5.8
				c0.2,0,0.3-0.1,0.3-0.3v-13.4C216.5,120.2,216.4,120.1,216.3,120"/>
		</g>
	</g>
</g>
<g id="Subbrand">
	<path class="st1" d="M0,104.9l4.2-5c3.8,3.3,7.6,5.1,12.5,5.1c4.3,0,7-2,7-5V100c0-2.8-1.6-4.4-8.9-6c-8.4-2-13.2-4.5-13.2-11.8V82
		c0-6.8,5.7-11.5,13.5-11.5c5.8,0,10.3,1.8,14.4,5l-3.7,5.3c-3.6-2.7-7.1-4.1-10.7-4.1c-4.1,0-6.4,2.1-6.4,4.7v0.1
		c0,3.1,1.8,4.4,9.4,6.2c8.4,2,12.7,5,12.7,11.6v0.1c0,7.4-5.8,11.8-14.1,11.8C10.5,111.2,4.7,109.1,0,104.9z M49.4,95.1l-15.7-24
		h8.2l11.1,17.5l11.2-17.5h8L56.4,94.9v15.8h-7V95.1z M73.4,104.9l4.2-5c3.8,3.3,7.6,5.1,12.5,5.1c4.3,0,7-2,7-5V100
		c0-2.8-1.6-4.4-8.9-6c-8.4-2-13.2-4.5-13.2-11.8V82c0-6.8,5.7-11.5,13.5-11.5c5.8,0,10.3,1.8,14.4,5l-3.7,5.3
		c-3.6-2.7-7.1-4.1-10.7-4.1c-4.1,0-6.4,2.1-6.4,4.7v0.1c0,3.1,1.8,4.4,9.4,6.2c8.4,2,12.7,5,12.7,11.6v0.1
		c0,7.4-5.8,11.8-14.1,11.8C83.9,111.2,78.2,109.1,73.4,104.9z M121.5,77.5H109v-6.4h32.1v6.4h-12.5v33.1h-7V77.5z M148.3,71.1h29.3
		v6.2h-22.4v10.3H175v6.2h-19.8v10.6h22.7v6.2h-29.6V71.1z M186.9,71.1h7.4l12,18.7l12-18.7h7.4v39.6h-7V82.3l-12.5,18.6h-0.2
		l-12.4-18.5v28.3h-6.8V71.1z M233.3,104.9l4.2-5c3.8,3.3,7.6,5.1,12.5,5.1c4.3,0,7-2,7-5V100c0-2.8-1.6-4.4-8.9-6
		c-8.4-2-13.2-4.5-13.2-11.8V82c0-6.8,5.7-11.5,13.5-11.5c5.8,0,10.3,1.8,14.4,5l-3.7,5.3c-3.6-2.7-7.1-4.1-10.7-4.1
		c-4.1,0-6.4,2.1-6.4,4.7v0.1c0,3.1,1.8,4.4,9.4,6.2c8.4,2,12.7,5,12.7,11.6v0.1c0,7.4-5.8,11.8-14.1,11.8
		C243.8,111.2,238.1,109.1,233.3,104.9z"/>
</g>
<g id="Artwork">
	<g>
		<path class="st1" d="M259.6,12.3c5.5,0,10.2,3.8,11.4,9.1c0.1,0.3,0.3,0.5,0.6,0.5h11.2h0c0.3,0,0.6-0.3,0.6-0.6
			c0-4.8-5.4-21.3-23.8-21.3c-18.4,0-23.8,16.5-23.8,21.3c0,0.3,0.3,0.6,0.6,0.6h0h11.2c0.3,0,0.5-0.2,0.6-0.5
			C249.4,16,254.1,12.3,259.6,12.3z"/>
		<path class="st1" d="M259.6,35.6c5.5,0,10.2-3.8,11.4-9.1c0.1-0.3,0.3-0.5,0.6-0.5h11.2h0c0.3,0,0.6,0.3,0.6,0.6
			c0,4.8-5.4,21.3-23.8,21.3c-18.4,0-23.8-16.5-23.8-21.3c0-0.3,0.3-0.6,0.6-0.6h0h11.2c0.3,0,0.5,0.2,0.6,0.5
			C249.4,31.8,254.1,35.6,259.6,35.6z"/>
		<path class="st1" d="M149.8,46.4c0,0.3-0.3,0.6-0.6,0.6h-11.6c-0.3,0-0.6-0.3-0.6-0.6V16.7c0-0.3,0.3-0.6,0.6-0.6h11.6
			c0.3,0,0.6,0.3,0.6,0.6V46.4z"/>
		<path class="st1" d="M123.3,12.1c-0.3,0-0.6-0.3-0.6-0.6V1.4c0-0.3,0.3-0.6,0.6-0.6h40.2c0.3,0,0.6,0.3,0.6,0.6v10.1
			c0,0.3-0.3,0.6-0.6,0.6H123.3z"/>
		<path class="st1" d="M86.3,29c-0.3,0-0.6-0.3-0.6-0.6v-8.9c0-0.3,0.3-0.6,0.6-0.6h16.9c0.3,0,0.6,0.3,0.6,0.6v8.9
			c0,0.3-0.3,0.6-0.6,0.6H86.3z"/>
		<path class="st1" d="M105.8,35.8H81.7V12.1h23.8c0.3,0,0.6-0.3,0.6-0.6V1.4c0-0.3-0.3-0.6-0.6-0.6H69.6c-0.3,0-0.6,0.3-0.6,0.6v45
			c0,0.3,0.3,0.6,0.6,0.6h36.3c0.3,0,0.6-0.3,0.6-0.6V36.3C106.4,36,106.1,35.8,105.8,35.8z"/>
		<path class="st1" d="M49,1c0-0.2-0.1-0.4-0.3-0.5c-0.2-0.1-0.4-0.1-0.6,0L24.5,14.8L0.9,0.5c-0.2-0.1-0.4-0.1-0.6,0
			C0.1,0.6,0,0.8,0,1v45.4C0,46.7,0.3,47,0.6,47h11.6c0.3,0,0.6-0.3,0.6-0.6v-25l11.2,6.7c0.1,0.1,0.4,0.2,0.6,0.2
			c0.2,0,0.5-0.1,0.6-0.2c0,0,23.5-14,23.6-14.1c0.3-0.1,0.3-0.3,0.3-0.7C49,13.2,49,1,49,1z"/>
		<path class="st2" d="M48.7,19.1c-0.2-0.1-0.4-0.1-0.6,0l-11.4,6.8c-0.3,0.2-0.4,0.3-0.4,0.8v19.7c0,0.3,0.3,0.6,0.6,0.6h11.6
			c0.3,0,0.6-0.3,0.6-0.6V19.6C49,19.4,48.9,19.2,48.7,19.1"/>
		<path class="st1" d="M191.7,0.9h-11.5c-0.3,0-0.6,0.3-0.6,0.6v44.9c0,0.3,0.3,0.6,0.6,0.6h11.5c0.3,0,0.6-0.3,0.6-0.6V1.5
			C192.3,1.1,192,0.9,191.7,0.9"/>
		<path class="st1" d="M192.3,46.4c0,0.3-0.3,0.6-0.6,0.6h-11.6c-0.3,0-0.6-0.3-0.6-0.6v-45c0-0.3,0.3-0.6,0.6-0.6h11.6
			c0.3,0,0.6,0.3,0.6,0.6V46.4z"/>
		<path class="st1" d="M209.6,31c0,0,10.8-3.1,10.8-14.6c0-15.6-14.9-15.6-21.1-15.6h-2.3c-0.3,0-0.6,0.3-0.6,0.6v10.1
			c0,0.3,0.3,0.6,0.6,0.6h3.7c1.8,0,6.9,0.3,6.9,5.5c0,5.2-5.4,5.5-6.8,5.5h-3.8c-0.3,0-0.6,0.3-0.6,0.6v8.8c0,0.6,0.2,0.8,0.3,0.9
			l9,13.3c0.1,0.2,0.3,0.3,0.5,0.3h13.3c0.2,0,0.4-0.1,0.5-0.3c0.1-0.2,0.1-0.4,0-0.6L209.6,31"/>
	</g>
</g>
</svg>
